SplineFontDB: 3.0
FontName: Untitled
FullName: UntitledRegular
FamilyName: Untitled
Weight: Book
Version: 1.0
ItalicAngle: 0
UnderlinePosition: -103
UnderlineWidth: 102
Ascent: 1638
Descent: 410
sfntRevision: 0x00010000
LayerCount: 2
Layer: 0 1 "Back"  1
Layer: 1 1 "Fore"  0
XUID: [1021 823 301787212 1342481]
FSType: 4
OS2Version: 2
OS2_WeightWidthSlopeOnly: 0
OS2_UseTypoMetrics: 1
CreationTime: 1300576716
ModificationTime: 1301252065
PfmFamily: 81
TTFWeight: 400
TTFWidth: 5
LineGap: 0
VLineGap: 0
Panose: 0 0 0 0 0 0 0 0 0 0
OS2TypoAscent: -34
OS2TypoAOffset: 1
OS2TypoDescent: 371
OS2TypoDOffset: 1
OS2TypoLinegap: 0
OS2WinAscent: 28
OS2WinAOffset: 1
OS2WinDescent: -412
OS2WinDOffset: 1
HheadAscent: 28
HheadAOffset: 1
HheadDescent: 412
HheadDOffset: 1
OS2SubXSize: 1434
OS2SubYSize: 1331
OS2SubXOff: 0
OS2SubYOff: 287
OS2SupXSize: 1434
OS2SupYSize: 1331
OS2SupXOff: 0
OS2SupYOff: 977
OS2StrikeYSize: 102
OS2StrikeYPos: 512
OS2Vendor: 'pyrs'
OS2CodePages: 00000001.00000000
OS2UnicodeRanges: 00000001.08000000.14000000.00000000
Lookup: 258 0 0 "'kern' Horizontal Kerning in Latin lookup 0"  {"'kern' Horizontal Kerning in Latin lookup 0 subtable"  } ['kern' ('latn' <'dflt' > ) ]
MarkAttachClasses: 1
DEI: 91125
ShortTable: maxp 16
  1
  0
  35
  620
  35
  0
  0
  1
  0
  0
  0
  0
  0
  0
  0
  0
EndShort
LangName: 1033 "" "" "Regular" "1.000;pyrs;Untitled" 
GaspTable: 1 65535 15
Encoding: UnicodeBmp
UnicodeInterp: none
NameList: Adobe Glyph List
DisplaySize: -48
AntiAlias: 1
FitToEm: 1
WinInfo: 60 20 13
BeginChars: 65539 35

StartChar: period
Encoding: 46 46 4
Width: 729
GlyphClass: 2
Flags: W
LayerCount: 2
Fore
SplineSet
127 12 m 2,0,1
 127 17 127 17 126.5 17.5 c 128,-1,2
 126 18 126 18 123 18 c 2,3,-1
 115 18 l 1,4,5
 115 13 115 13 116 10 c 128,-1,6
 117 7 117 7 117 2 c 1,7,-1
 76 2 l 1,8,9
 74 5 74 5 73 8 c 0,10,11
 70 12 70 12 70 18 c 2,12,-1
 70 129 l 1,13,-1
 74 141 l 1,14,15
 80 141 80 141 80.5 135 c 128,-1,16
 81 129 81 129 90 129 c 0,17,18
 100 129 100 129 100 137 c 0,19,20
 100 139 100 139 90.5 148.5 c 128,-1,21
 81 158 81 158 78 164 c 1,22,23
 72 189 72 189 69.5 221 c 128,-1,24
 67 253 67 253 66.5 286.5 c 128,-1,25
 66 320 66 320 67 351.5 c 128,-1,26
 68 383 68 383 68 408 c 0,27,28
 68 410 68 410 71 422.5 c 128,-1,29
 74 435 74 435 74 444 c 1,30,-1
 78 446 l 1,31,32
 90 446 90 446 104.5 447 c 128,-1,33
 119 448 119 448 132.5 448.5 c 128,-1,34
 146 449 146 449 156.5 450 c 128,-1,35
 167 451 167 451 170 451 c 0,36,37
 176 451 176 451 181 448.5 c 128,-1,38
 186 446 186 446 193 446 c 0,39,40
 214 446 214 446 236 448.5 c 128,-1,41
 258 451 258 451 281 451 c 1,42,43
 275 448 275 448 284.5 447.5 c 128,-1,44
 294 447 294 447 308 446.5 c 128,-1,45
 322 446 322 446 335 445.5 c 128,-1,46
 348 445 348 445 348 442 c 0,47,48
 348 437 348 437 347 430.5 c 128,-1,49
 346 424 346 424 346 416 c 0,50,51
 346 413 346 413 347 412 c 0,52,53
 347 411 347 411 348 410 c 1,54,55
 360 410 360 410 363.5 414 c 128,-1,56
 367 418 367 418 368.5 423 c 128,-1,57
 370 428 370 428 372 432 c 128,-1,58
 374 436 374 436 381 436 c 1,59,60
 381 438 381 438 385.5 436 c 128,-1,61
 390 434 390 434 395 434 c 0,62,63
 399 434 399 434 400.5 436.5 c 128,-1,64
 402 439 402 439 403.5 441.5 c 128,-1,65
 405 444 405 444 408 446.5 c 128,-1,66
 411 449 411 449 418 449 c 0,67,68
 432 449 432 449 439.5 440.5 c 128,-1,69
 447 432 447 432 457 432 c 0,70,71
 459 432 459 432 459 436 c 0,72,73
 459 442 459 442 457 446 c 1,74,75
 457 450 457 450 470 451.5 c 128,-1,76
 483 453 483 453 494 453 c 2,77,-1
 651 453 l 2,78,79
 659 453 659 453 659 444 c 2,80,-1
 659 14 l 1,81,-1
 653 2 l 1,82,-1
 571 2 l 2,83,84
 550 2 550 2 539.5 9.5 c 128,-1,85
 529 17 529 17 522 26.5 c 128,-1,86
 515 36 515 36 508.5 43.5 c 128,-1,87
 502 51 502 51 487 51 c 0,88,89
 484 51 484 51 481.5 50.5 c 128,-1,90
 479 50 479 50 479 45 c 0,91,92
 479 42 479 42 482.5 40.5 c 128,-1,93
 486 39 486 39 489.5 36.5 c 128,-1,94
 493 34 493 34 496.5 30 c 128,-1,95
 500 26 500 26 500 18 c 0,96,97
 500 12 500 12 499 10 c 128,-1,98
 498 8 498 8 492 8 c 0,99,100
 479 8 479 8 476 21 c 128,-1,101
 473 34 473 34 473 43 c 1,102,103
 462 43 462 43 452 37 c 128,-1,104
 442 31 442 31 442 20 c 0,105,106
 442 15 442 15 445.5 14 c 128,-1,107
 449 13 449 13 449 10 c 0,108,109
 449 4 449 4 441 6 c 128,-1,110
 433 8 433 8 430 6 c 1,111,112
 404 1 404 1 376 -0.5 c 128,-1,113
 348 -2 348 -2 318.5 -1.5 c 128,-1,114
 289 -1 289 -1 258.5 0.5 c 128,-1,115
 228 2 228 2 197 2 c 0,116,117
 194 2 194 2 185.5 1 c 128,-1,118
 177 0 177 0 174 0 c 0,119,120
 172 0 172 0 165 0.5 c 128,-1,121
 158 1 158 1 150.5 1 c 128,-1,122
 143 1 143 1 136 1.5 c 128,-1,123
 129 2 129 2 127 2 c 1,124,-1
 127 12 l 2,0,1
565 9 m 1,125,126
 565 9 565 9 563 10 c 1,127,-1
 563 8 l 1,128,-1
 563 6 l 1,129,130
 565 6 565 6 565 8 c 2,131,-1
 565 9 l 1,125,126
174 25 m 1,132,133
 176 20 176 20 180 20 c 0,134,135
 183 20 183 20 184.5 23.5 c 128,-1,136
 186 27 186 27 186 29 c 0,137,138
 186 38 186 38 179 43.5 c 128,-1,139
 172 49 172 49 164 49 c 0,140,141
 153 49 153 49 151.5 43 c 128,-1,142
 150 37 150 37 145 25 c 1,143,-1
 174 25 l 1,132,133
100 35 m 1,144,145
 101 34 101 34 103 34 c 0,146,147
 105 33 105 33 109 33 c 0,148,149
 112 33 112 33 112.5 35 c 128,-1,150
 113 37 113 37 113 39 c 0,151,152
 113 42 113 42 110.5 47.5 c 128,-1,153
 108 53 108 53 104 53 c 0,154,155
 101 53 101 53 100.5 51 c 128,-1,156
 100 49 100 49 100 47 c 2,157,-1
 100 35 l 1,144,145
133 106 m 1,158,159
 133 96 133 96 143 96 c 0,160,161
 145 96 145 96 148.5 96.5 c 128,-1,162
 152 97 152 97 152 100 c 0,163,164
 152 107 152 107 144 106.5 c 128,-1,165
 136 106 136 106 133 106 c 1,158,159
522 131 m 0,166,167
 522 129 522 129 522.5 126 c 128,-1,168
 523 123 523 123 526 123 c 0,169,170
 532 125 532 125 536 129 c 1,171,172
 540 131 540 131 543.5 134.5 c 128,-1,173
 547 138 547 138 549 141 c 1,174,175
 549 145 549 145 545 145 c 0,176,177
 539 145 539 145 530.5 142 c 128,-1,178
 522 139 522 139 522 131 c 0,166,167
119 147 m 2,179,180
 119 143 119 143 123 143 c 0,181,182
 126 143 126 143 129.5 145.5 c 128,-1,183
 133 148 133 148 133 152 c 1,184,185
 131 152 131 152 129.5 154 c 128,-1,186
 128 156 128 156 123 156 c 1,187,-1
 121 154 l 2,188,189
 119 152 119 152 119 150 c 2,190,-1
 119 147 l 2,179,180
637 190 m 1,191,192
 637 188 637 188 637.5 186 c 128,-1,193
 638 184 638 184 641 182 c 1,194,-1
 643 184 l 1,195,196
 643 190 643 190 637 190 c 1,191,192
383 229 m 0,197,198
 383 225 383 225 391.5 217.5 c 128,-1,199
 400 210 400 210 410.5 202.5 c 128,-1,200
 421 195 421 195 430.5 189.5 c 128,-1,201
 440 184 440 184 442 184 c 0,202,203
 455 184 455 184 455 197 c 1,204,205
 447 206 447 206 438.5 215.5 c 128,-1,206
 430 225 430 225 424 236 c 1,207,208
 419 242 419 242 417 255 c 128,-1,209
 415 268 415 268 410 268 c 0,210,211
 407 268 407 268 402.5 263 c 128,-1,212
 398 258 398 258 393.5 251 c 128,-1,213
 389 244 389 244 386 238 c 128,-1,214
 383 232 383 232 383 229 c 0,197,198
248 199 m 0,215,216
 248 188 248 188 250 188 c 2,217,-1
 268 188 l 1,218,219
 269 195 269 195 272.5 198 c 128,-1,220
 276 201 276 201 280 203 c 128,-1,221
 284 205 284 205 287.5 207.5 c 128,-1,222
 291 210 291 210 291 215 c 0,223,224
 291 223 291 223 286 228.5 c 128,-1,225
 281 234 281 234 281 242 c 0,226,227
 281 249 281 249 285.5 251.5 c 128,-1,228
 290 254 290 254 295 255.5 c 128,-1,229
 300 257 300 257 304.5 258.5 c 128,-1,230
 309 260 309 260 309 266 c 0,231,232
 309 269 309 269 306.5 275 c 128,-1,233
 304 281 304 281 301 281 c 2,234,-1
 270 281 l 1,235,236
 265 276 265 276 257.5 275 c 128,-1,237
 250 274 250 274 250 266 c 0,238,239
 250 261 250 261 250.5 258.5 c 128,-1,240
 251 256 251 256 256 254 c 1,241,242
 258 238 258 238 253 225.5 c 128,-1,243
 248 213 248 213 248 199 c 0,215,216
506 199 m 256,244,245
 506 197 506 197 509.5 196 c 128,-1,246
 513 195 513 195 516 195 c 0,247,248
 520 195 520 195 520 199 c 1,249,-1
 518 201 l 2,250,251
 516 203 516 203 514 203 c 256,252,253
 512 203 512 203 509 202 c 128,-1,254
 506 201 506 201 506 199 c 256,244,245
315 225 m 1,255,256
 315 213 315 213 326 213 c 1,257,258
 326 218 326 218 323 221.5 c 128,-1,259
 320 225 320 225 315 225 c 1,255,256
498 260 m 1,260,261
 498 257 498 257 499.5 253.5 c 128,-1,262
 501 250 501 250 504 250 c 1,263,-1
 504 260 l 1,264,-1
 498 260 l 1,260,261
406 279 m 1,265,266
 410 279 410 279 417.5 278 c 128,-1,267
 425 277 425 277 433.5 276.5 c 128,-1,268
 442 276 442 276 448 275.5 c 128,-1,269
 454 275 454 275 455 276 c 1,270,-1
 455 297 l 2,271,272
 455 301 455 301 459 301 c 0,273,274
 465 301 465 301 467.5 298 c 128,-1,275
 470 295 470 295 475 295 c 256,276,277
 480 295 480 295 490 296 c 128,-1,278
 500 297 500 297 500 303 c 0,279,280
 500 311 500 311 490.5 313 c 128,-1,281
 481 315 481 315 475 315 c 0,282,283
 470 315 470 315 465 314.5 c 128,-1,284
 460 314 460 314 457 309 c 1,285,-1
 414 309 l 2,286,287
 409 309 409 309 407 302 c 128,-1,288
 405 295 405 295 405 287.5 c 128,-1,289
 405 280 405 280 405.5 276.5 c 128,-1,290
 406 273 406 273 406 279 c 1,265,266
154 289 m 1,291,292
 154 285 154 285 158 285 c 0,293,294
 161 285 161 285 165.5 285.5 c 128,-1,295
 170 286 170 286 170 289 c 1,296,-1
 154 289 l 1,291,292
602 377 m 256,297,298
 602 375 602 375 603 374 c 0,299,300
 603 373 603 373 604 373 c 2,301,-1
 616 358 l 1,302,303
 619 357 619 357 623.5 358.5 c 128,-1,304
 628 360 628 360 632.5 363 c 128,-1,305
 637 366 637 366 640 369.5 c 128,-1,306
 643 373 643 373 643 377 c 0,307,308
 643 382 643 382 641.5 382.5 c 128,-1,309
 640 383 640 383 637 383 c 0,310,311
 631 383 631 383 628 382 c 128,-1,312
 625 381 625 381 618 381 c 0,313,314
 615 381 615 381 613 382 c 128,-1,315
 611 383 611 383 608 383 c 0,316,317
 603 383 603 383 602.5 381 c 128,-1,318
 602 379 602 379 602 377 c 256,297,298
283 383 m 1,319,320
 287 383 287 383 287 385 c 1,321,-1
 283 385 l 1,322,-1
 283 383 l 1,319,320
440 393 m 0,323,324
 440 387 440 387 449 384 c 128,-1,325
 458 381 458 381 461 381 c 1,326,327
 461 389 461 389 454 390.5 c 128,-1,328
 447 392 447 392 442 397 c 1,329,330
 440 395 440 395 440 393 c 0,323,324
EndSplineSet
EndChar

StartChar: A
Encoding: 65 65 5
Width: 1818
GlyphClass: 2
Flags: W
LayerCount: 2
Fore
SplineSet
1192 0 m 1,0,-1
 1118 258 l 1,1,-1
 700 258 l 1,2,-1
 627 0 l 1,3,-1
 78 0 l 1,4,-1
 78 434 l 1,5,-1
 201 459 l 1,6,-1
 516 1536 l 1,7,-1
 1302 1536 l 1,8,-1
 1618 459 l 1,9,-1
 1741 434 l 1,10,-1
 1741 0 l 1,11,-1
 1192 0 l 1,0,-1
786 651 m 1,12,-1
 1032 651 l 1,13,-1
 909 1180 l 1,14,-1
 786 651 l 1,12,-1
EndSplineSet
EndChar

StartChar: B
Encoding: 66 66 6
Width: 1924
GlyphClass: 2
Flags: W
LayerCount: 2
Fore
SplineSet
1413 1536 m 1,0,1
 1571 1498 1571 1498 1648.5 1411 c 128,-1,2
 1726 1324 1726 1324 1726 1177 c 0,3,4
 1726 1103 1726 1103 1713.5 1047 c 128,-1,5
 1701 991 1701 991 1680.5 949.5 c 128,-1,6
 1660 908 1660 908 1633.5 880 c 128,-1,7
 1607 852 1607 852 1580 834 c 0,8,9
 1516 791 1516 791 1435 786 c 1,10,11
 1545 781 1545 781 1631 745 c 0,12,13
 1668 730 1668 730 1703 706 c 128,-1,14
 1738 682 1738 682 1766 647.5 c 128,-1,15
 1794 613 1794 613 1811 566.5 c 128,-1,16
 1828 520 1828 520 1828 459 c 0,17,18
 1828 361 1828 361 1803.5 277 c 128,-1,19
 1779 193 1779 193 1717.5 131.5 c 128,-1,20
 1656 70 1656 70 1550 35 c 128,-1,21
 1444 0 1444 0 1282 0 c 2,22,-1
 121 0 l 1,23,-1
 121 434 l 1,24,-1
 249 459 l 1,25,-1
 249 1114 l 1,26,-1
 121 1139 l 1,27,-1
 121 1536 l 1,28,-1
 1413 1536 l 1,0,1
1188 545 m 0,29,30
 1188 596 1188 596 1170.5 623 c 128,-1,31
 1153 650 1153 650 1124 663 c 128,-1,32
 1095 676 1095 676 1058 678 c 128,-1,33
 1021 680 1021 680 983 680 c 2,34,-1
 889 680 l 1,35,-1
 889 393 l 1,36,-1
 983 393 l 2,37,38
 1021 393 1021 393 1058 395.5 c 128,-1,39
 1095 398 1095 398 1124 412 c 128,-1,40
 1153 426 1153 426 1170.5 457 c 128,-1,41
 1188 488 1188 488 1188 545 c 0,29,30
1188 1044 m 0,42,43
 1188 1095 1188 1095 1170.5 1122.5 c 128,-1,44
 1153 1150 1153 1150 1124 1163 c 128,-1,45
 1095 1176 1095 1176 1058 1178 c 128,-1,46
 1021 1180 1021 1180 983 1180 c 2,47,-1
 889 1180 l 1,48,-1
 889 893 l 1,49,-1
 983 893 l 2,50,51
 1021 893 1021 893 1058 895.5 c 128,-1,52
 1095 898 1095 898 1124 912 c 128,-1,53
 1153 926 1153 926 1170.5 956.5 c 128,-1,54
 1188 987 1188 987 1188 1044 c 0,42,43
EndSplineSet
EndChar

StartChar: C
Encoding: 67 67 7
Width: 1728
GlyphClass: 2
Flags: W
LayerCount: 2
Fore
SplineSet
85 786 m 0,0,1
 85 923 85 923 116.5 1035 c 128,-1,2
 148 1147 148 1147 202 1235 c 128,-1,3
 256 1323 256 1323 329 1387 c 128,-1,4
 402 1451 402 1451 486 1493 c 128,-1,5
 570 1535 570 1535 660 1555.5 c 128,-1,6
 750 1576 750 1576 839 1576 c 0,7,8
 939 1576 939 1576 1026 1541 c 128,-1,9
 1113 1506 1113 1506 1179 1440 c 1,10,-1
 1202 1536 l 1,11,-1
 1622 1536 l 1,12,-1
 1622 865 l 1,13,-1
 1198 865 l 1,14,15
 1189 929 1189 929 1166.5 976 c 128,-1,16
 1144 1023 1144 1023 1113.5 1054 c 128,-1,17
 1083 1085 1083 1085 1046 1100 c 128,-1,18
 1009 1115 1009 1115 971 1115 c 0,19,20
 925 1115 925 1115 881 1093.5 c 128,-1,21
 837 1072 837 1072 802.5 1030.5 c 128,-1,22
 768 989 768 989 746.5 927.5 c 128,-1,23
 725 866 725 866 725 786 c 0,24,25
 725 699 725 699 747 636.5 c 128,-1,26
 769 574 769 574 811.5 533.5 c 128,-1,27
 854 493 854 493 916 474 c 128,-1,28
 978 455 978 455 1057 455 c 0,29,30
 1158 455 1158 455 1289.5 490.5 c 128,-1,31
 1421 526 1421 526 1579 592 c 1,32,-1
 1579 131 l 1,33,34
 1416 46 1416 46 1256.5 3 c 128,-1,35
 1097 -40 1097 -40 948 -40 c 0,36,37
 765 -40 765 -40 607.5 10 c 128,-1,38
 450 60 450 60 334 162 c 128,-1,39
 218 264 218 264 151.5 419.5 c 128,-1,40
 85 575 85 575 85 786 c 0,0,1
EndSplineSet
EndChar

StartChar: D
Encoding: 68 68 8
Width: 2003
GlyphClass: 2
Flags: W
LayerCount: 2
Fore
SplineSet
1286 1536 m 1,0,1
 1431 1505 1431 1505 1547 1446.5 c 128,-1,2
 1663 1388 1663 1388 1744.5 1297 c 128,-1,3
 1826 1206 1826 1206 1869.5 1079.5 c 128,-1,4
 1913 953 1913 953 1913 786 c 0,5,6
 1913 565 1913 565 1839 414.5 c 128,-1,7
 1765 264 1765 264 1630.5 172 c 128,-1,8
 1496 80 1496 80 1307.5 40 c 128,-1,9
 1119 0 1119 0 889 0 c 2,10,-1
 121 0 l 1,11,-1
 121 434 l 1,12,-1
 249 459 l 1,13,-1
 249 1114 l 1,14,-1
 121 1139 l 1,15,-1
 121 1536 l 1,16,-1
 1286 1536 l 1,0,1
987 459 m 2,17,18
 1094 459 1094 459 1152 482.5 c 128,-1,19
 1210 506 1210 506 1236.5 549 c 128,-1,20
 1263 592 1263 592 1267.5 652 c 128,-1,21
 1272 712 1272 712 1272 786 c 256,22,23
 1272 860 1272 860 1267.5 920.5 c 128,-1,24
 1263 981 1263 981 1236.5 1024 c 128,-1,25
 1210 1067 1210 1067 1152 1090.5 c 128,-1,26
 1094 1114 1094 1114 987 1114 c 2,27,-1
 889 1114 l 1,28,-1
 889 459 l 1,29,-1
 987 459 l 2,17,18
EndSplineSet
EndChar

StartChar: E
Encoding: 69 69 9
Width: 1604
GlyphClass: 2
Flags: W
LayerCount: 2
Fore
SplineSet
1478 0 m 1,0,-1
 121 0 l 1,1,-1
 121 434 l 1,2,-1
 249 459 l 1,3,-1
 249 1075 l 1,4,-1
 121 1100 l 1,5,-1
 121 1536 l 1,6,-1
 1484 1536 l 1,7,-1
 1484 984 l 1,8,9
 1422 1009 1422 1009 1334 1029 c 0,10,11
 1259 1046 1259 1046 1148 1060.5 c 128,-1,12
 1037 1075 1037 1075 889 1075 c 1,13,-1
 889 879 l 1,14,-1
 1189 944 l 1,15,-1
 1183 590 l 1,16,-1
 889 655 l 1,17,-1
 889 459 l 1,18,19
 1035 459 1035 459 1144.5 471.5 c 128,-1,20
 1254 484 1254 484 1329 499 c 0,21,22
 1416 517 1416 517 1478 540 c 1,23,-1
 1478 0 l 1,0,-1
EndSplineSet
EndChar

StartChar: F
Encoding: 70 70 10
Width: 1431
GlyphClass: 2
Flags: W
LayerCount: 2
Fore
SplineSet
121 0 m 1,0,-1
 121 434 l 1,1,-1
 249 459 l 1,2,-1
 249 1075 l 1,3,-1
 121 1100 l 1,4,-1
 121 1536 l 1,5,-1
 1358 1536 l 1,6,-1
 1358 1014 l 1,7,8
 1331 1031 1331 1031 1271 1044 c 0,9,10
 1220 1055 1220 1055 1128 1065 c 128,-1,11
 1036 1075 1036 1075 889 1075 c 1,12,-1
 889 879 l 1,13,-1
 1161 944 l 1,14,-1
 1161 590 l 1,15,-1
 889 655 l 1,16,-1
 889 459 l 1,17,-1
 1017 430 l 1,18,-1
 1017 0 l 1,19,-1
 121 0 l 1,0,-1
EndSplineSet
EndChar

StartChar: G
Encoding: 71 71 11
Width: 1747
GlyphClass: 2
Flags: W
LayerCount: 2
Fore
SplineSet
1012 864 m 1,0,-1
 1634 864 l 1,1,-1
 1634 162 l 1,2,3
 1554 120 1554 120 1464.5 83 c 128,-1,4
 1375 46 1375 46 1285 19 c 128,-1,5
 1195 -8 1195 -8 1108.5 -23.5 c 128,-1,6
 1022 -39 1022 -39 949 -39 c 0,7,8
 766 -39 766 -39 608.5 10.5 c 128,-1,9
 451 60 451 60 334.5 162 c 128,-1,10
 218 264 218 264 151.5 419.5 c 128,-1,11
 85 575 85 575 85 786 c 0,12,13
 85 992 85 992 145.5 1141 c 128,-1,14
 206 1290 206 1290 318 1387 c 128,-1,15
 430 1484 430 1484 588 1530 c 128,-1,16
 746 1576 746 1576 940 1576 c 0,17,18
 1091 1576 1091 1576 1206.5 1558 c 128,-1,19
 1322 1540 1322 1540 1403 1518 c 0,20,21
 1496 1492 1496 1492 1566 1460 c 1,22,-1
 1566 981 l 1,23,24
 1470 1018 1470 1018 1377 1048 c 0,25,26
 1337 1061 1337 1061 1294 1073 c 128,-1,27
 1251 1085 1251 1085 1208.5 1094.5 c 128,-1,28
 1166 1104 1166 1104 1125.5 1110 c 128,-1,29
 1085 1116 1085 1116 1051 1116 c 0,30,31
 890 1116 890 1116 808 1032 c 128,-1,32
 726 948 726 948 726 786 c 0,33,34
 726 699 726 699 748 636.5 c 128,-1,35
 770 574 770 574 812.5 533.5 c 128,-1,36
 855 493 855 493 917 474 c 128,-1,37
 979 455 979 455 1058 455 c 0,38,39
 1125 455 1125 455 1204 471 c 1,40,-1
 1204 570 l 1,41,-1
 1012 570 l 1,42,-1
 1012 864 l 1,0,-1
EndSplineSet
EndChar

StartChar: H
Encoding: 72 72 12
Width: 2290
GlyphClass: 2
Flags: W
LayerCount: 2
Fore
SplineSet
121 1536 m 1,0,-1
 1017 1536 l 1,1,-1
 1017 1100 l 1,2,-1
 889 1075 l 1,3,-1
 889 896 l 1,4,-1
 1401 896 l 1,5,-1
 1401 1075 l 1,6,-1
 1273 1100 l 1,7,-1
 1273 1536 l 1,8,-1
 2169 1536 l 1,9,-1
 2169 1100 l 1,10,-1
 2041 1075 l 1,11,-1
 2041 459 l 1,12,-1
 2169 434 l 1,13,-1
 2169 0 l 1,14,-1
 1273 0 l 1,15,-1
 1273 434 l 1,16,-1
 1401 459 l 1,17,-1
 1401 640 l 1,18,-1
 889 640 l 1,19,-1
 889 459 l 1,20,-1
 1017 434 l 1,21,-1
 1017 0 l 1,22,-1
 121 0 l 1,23,-1
 121 434 l 1,24,-1
 249 459 l 1,25,-1
 249 1075 l 1,26,-1
 121 1100 l 1,27,-1
 121 1536 l 1,0,-1
EndSplineSet
EndChar

StartChar: I
Encoding: 73 73 13
Width: 1136
GlyphClass: 2
Flags: W
LayerCount: 2
Fore
SplineSet
120 1536 m 1,0,-1
 1016 1536 l 1,1,-1
 1016 1102 l 1,2,-1
 888 1077 l 1,3,-1
 888 459 l 1,4,-1
 1016 434 l 1,5,-1
 1016 0 l 1,6,-1
 120 0 l 1,7,-1
 120 434 l 1,8,-1
 248 459 l 1,9,-1
 248 1077 l 1,10,-1
 120 1102 l 1,11,-1
 120 1536 l 1,0,-1
EndSplineSet
EndChar

StartChar: K
Encoding: 75 75 14
Width: 2095
GlyphClass: 2
Flags: W
LayerCount: 2
Fore
SplineSet
1477 766 m 1,0,-1
 1993 0 l 1,1,-1
 1221 0 l 1,2,-1
 888 641 l 1,3,-1
 888 0 l 1,4,-1
 120 0 l 1,5,-1
 120 434 l 1,6,-1
 248 459 l 1,7,-1
 248 1077 l 1,8,-1
 120 1102 l 1,9,-1
 120 1536 l 1,10,-1
 888 1536 l 1,11,-1
 888 920 l 1,12,-1
 1221 1536 l 1,13,-1
 1993 1536 l 1,14,-1
 1477 766 l 1,0,-1
EndSplineSet
EndChar

StartChar: L
Encoding: 76 76 15
Width: 1354
GlyphClass: 2
Flags: W
LayerCount: 2
Fore
SplineSet
120 1536 m 1,0,-1
 1016 1536 l 1,1,-1
 1016 1102 l 1,2,-1
 888 1077 l 1,3,-1
 888 459 l 1,4,5
 962 459 962 459 1030.5 468.5 c 128,-1,6
 1099 478 1099 478 1153 489 c 0,7,8
 1215 502 1215 502 1272 520 c 1,9,-1
 1272 0 l 1,10,-1
 120 0 l 1,11,-1
 120 434 l 1,12,-1
 248 459 l 1,13,-1
 248 1077 l 1,14,-1
 120 1102 l 1,15,-1
 120 1536 l 1,0,-1
EndSplineSet
EndChar

StartChar: M
Encoding: 77 77 16
Width: 2416
GlyphClass: 2
Flags: W
LayerCount: 2
Fore
SplineSet
887 749 m 1,0,-1
 887 0 l 1,1,-1
 120 0 l 1,2,-1
 120 434 l 1,3,-1
 248 459 l 1,4,-1
 248 1077 l 1,5,-1
 120 1102 l 1,6,-1
 120 1536 l 1,7,-1
 887 1536 l 1,8,-1
 1209 946 l 1,9,-1
 1528 1536 l 1,10,-1
 2296 1536 l 1,11,-1
 2296 1102 l 1,12,-1
 2168 1077 l 1,13,-1
 2168 459 l 1,14,-1
 2296 434 l 1,15,-1
 2296 0 l 1,16,-1
 1528 0 l 1,17,-1
 1528 749 l 1,18,-1
 1209 197 l 1,19,-1
 887 749 l 1,0,-1
EndSplineSet
EndChar

StartChar: N
Encoding: 78 78 17
Width: 2034
GlyphClass: 2
Flags: W
LayerCount: 2
Fore
SplineSet
633 749 m 1,0,-1
 633 459 l 1,1,-1
 761 435 l 1,2,-1
 761 0 l 1,3,-1
 121 0 l 1,4,-1
 121 434 l 1,5,-1
 249 459 l 1,6,-1
 249 1077 l 1,7,-1
 121 1102 l 1,8,-1
 121 1536 l 1,9,-1
 889 1536 l 1,10,-1
 1401 749 l 1,11,-1
 1401 1075 l 1,12,-1
 1273 1102 l 1,13,-1
 1273 1536 l 1,14,-1
 1913 1536 l 1,15,-1
 1913 1102 l 1,16,-1
 1785 1077 l 1,17,-1
 1785 459 l 1,18,-1
 1913 434 l 1,19,-1
 1913 0 l 1,20,-1
 1144 0 l 1,21,-1
 633 749 l 1,0,-1
EndSplineSet
EndChar

StartChar: O
Encoding: 79 79 18
Width: 1970
GlyphClass: 2
Flags: W
LayerCount: 2
Fore
SplineSet
984 -40 m 0,0,1
 859 -40 859 -40 744 -19.5 c 128,-1,2
 629 1 629 1 529.5 43.5 c 128,-1,3
 430 86 430 86 349 152 c 128,-1,4
 268 218 268 218 210 310 c 128,-1,5
 152 402 152 402 120.5 520.5 c 128,-1,6
 89 639 89 639 89 786 c 0,7,8
 89 928 89 928 120.5 1042 c 128,-1,9
 152 1156 152 1156 210 1243.5 c 128,-1,10
 268 1331 268 1331 349.5 1394 c 128,-1,11
 431 1457 431 1457 530.5 1497.5 c 128,-1,12
 630 1538 630 1538 744.5 1557 c 128,-1,13
 859 1576 859 1576 984 1576 c 0,14,15
 1108 1576 1108 1576 1223 1557 c 128,-1,16
 1338 1538 1338 1538 1437.5 1497.5 c 128,-1,17
 1537 1457 1537 1457 1619 1394 c 128,-1,18
 1701 1331 1701 1331 1759 1243.5 c 128,-1,19
 1817 1156 1817 1156 1849 1042 c 128,-1,20
 1881 928 1881 928 1881 786 c 0,21,22
 1881 565 1881 565 1811 408.5 c 128,-1,23
 1741 252 1741 252 1619.5 152 c 128,-1,24
 1498 52 1498 52 1334.5 6 c 128,-1,25
 1171 -40 1171 -40 984 -40 c 0,0,1
984 1102 m 256,26,27
 920 1102 920 1102 876.5 1085.5 c 128,-1,28
 833 1069 833 1069 804.5 1042 c 128,-1,29
 776 1015 776 1015 761 981 c 128,-1,30
 746 947 746 947 738.5 912 c 128,-1,31
 731 877 731 877 730 844 c 128,-1,32
 729 811 729 811 729 786 c 256,33,34
 729 761 729 761 730 728 c 128,-1,35
 731 695 731 695 738.5 659.5 c 128,-1,36
 746 624 746 624 761 589 c 128,-1,37
 776 554 776 554 804.5 526.5 c 128,-1,38
 833 499 833 499 876.5 482 c 128,-1,39
 920 465 920 465 984 465 c 256,40,41
 1048 465 1048 465 1091.5 482 c 128,-1,42
 1135 499 1135 499 1164 526.5 c 128,-1,43
 1193 554 1193 554 1208.5 589 c 128,-1,44
 1224 624 1224 624 1231 659.5 c 128,-1,45
 1238 695 1238 695 1239.5 728 c 128,-1,46
 1241 761 1241 761 1241 786 c 256,47,48
 1241 811 1241 811 1239.5 844 c 128,-1,49
 1238 877 1238 877 1231 912 c 128,-1,50
 1224 947 1224 947 1208.5 981 c 128,-1,51
 1193 1015 1193 1015 1164 1042 c 128,-1,52
 1135 1069 1135 1069 1091.5 1085.5 c 128,-1,53
 1048 1102 1048 1102 984 1102 c 256,26,27
EndSplineSet
EndChar

StartChar: P
Encoding: 80 80 19
Width: 1835
GlyphClass: 2
Flags: W
LayerCount: 2
Fore
SplineSet
120 1536 m 1,0,-1
 991 1536 l 2,1,2
 1161 1536 1161 1536 1286 1520.5 c 128,-1,3
 1411 1505 1411 1505 1499 1476 c 128,-1,4
 1587 1447 1587 1447 1642.5 1405 c 128,-1,5
 1698 1363 1698 1363 1729.5 1311 c 128,-1,6
 1761 1259 1761 1259 1772.5 1197 c 128,-1,7
 1784 1135 1784 1135 1784 1065 c 0,8,9
 1784 993 1784 993 1770.5 930 c 128,-1,10
 1757 867 1757 867 1721 814.5 c 128,-1,11
 1685 762 1685 762 1621.5 720 c 128,-1,12
 1558 678 1558 678 1458.5 649.5 c 128,-1,13
 1359 621 1359 621 1218.5 605.5 c 128,-1,14
 1078 590 1078 590 888 590 c 1,15,-1
 888 459 l 1,16,-1
 1016 434 l 1,17,-1
 1016 0 l 1,18,-1
 120 0 l 1,19,-1
 120 434 l 1,20,-1
 248 459 l 1,21,-1
 248 1077 l 1,22,-1
 120 1102 l 1,23,-1
 120 1536 l 1,0,-1
888 865 m 1,24,25
 946 865 946 865 993.5 871 c 128,-1,26
 1041 877 1041 877 1074.5 896.5 c 128,-1,27
 1108 916 1108 916 1126 953 c 128,-1,28
 1144 990 1144 990 1144 1053 c 0,29,30
 1144 1114 1144 1114 1126 1150.5 c 128,-1,31
 1108 1187 1108 1187 1074.5 1206 c 128,-1,32
 1041 1225 1041 1225 993.5 1231 c 128,-1,33
 946 1237 946 1237 888 1237 c 1,34,-1
 888 865 l 1,24,25
EndSplineSet
EndChar

StartChar: Q
Encoding: 81 81 20
Width: 1947
GlyphClass: 2
Flags: W
LayerCount: 2
Fore
SplineSet
1659 -451 m 1,0,1
 1528 -451 1528 -451 1415 -432 c 128,-1,2
 1302 -413 1302 -413 1205.5 -381 c 128,-1,3
 1109 -349 1109 -349 1028.5 -305.5 c 128,-1,4
 948 -262 948 -262 881.5 -213 c 128,-1,5
 815 -164 815 -164 762 -112 c 128,-1,6
 709 -60 709 -60 668 -10 c 1,7,8
 534 20 534 20 422.5 82 c 128,-1,9
 311 144 311 144 231 241.5 c 128,-1,10
 151 339 151 339 106 474.5 c 128,-1,11
 61 610 61 610 61 786 c 0,12,13
 61 928 61 928 92.5 1042 c 128,-1,14
 124 1156 124 1156 182 1243.5 c 128,-1,15
 240 1331 240 1331 321.5 1394 c 128,-1,16
 403 1457 403 1457 502.5 1497.5 c 128,-1,17
 602 1538 602 1538 716.5 1557 c 128,-1,18
 831 1576 831 1576 956 1576 c 0,19,20
 1080 1576 1080 1576 1195 1557 c 128,-1,21
 1310 1538 1310 1538 1409.5 1497.5 c 128,-1,22
 1509 1457 1509 1457 1591 1394 c 128,-1,23
 1673 1331 1673 1331 1731 1243.5 c 128,-1,24
 1789 1156 1789 1156 1821 1042 c 128,-1,25
 1853 928 1853 928 1853 786 c 0,26,27
 1853 626 1853 626 1815.5 500 c 128,-1,28
 1778 374 1778 374 1710.5 279 c 128,-1,29
 1643 184 1643 184 1548.5 119 c 128,-1,30
 1454 54 1454 54 1340 16 c 1,31,32
 1411 -19 1411 -19 1520 -42 c 128,-1,33
 1629 -65 1629 -65 1787 -65 c 1,34,-1
 1659 -451 l 1,0,1
956 1102 m 256,35,36
 892 1102 892 1102 848.5 1085.5 c 128,-1,37
 805 1069 805 1069 776.5 1042 c 128,-1,38
 748 1015 748 1015 733 981 c 128,-1,39
 718 947 718 947 710.5 912 c 128,-1,40
 703 877 703 877 702 844 c 128,-1,41
 701 811 701 811 701 786 c 256,42,43
 701 761 701 761 702 728 c 128,-1,44
 703 695 703 695 710.5 659.5 c 128,-1,45
 718 624 718 624 733 589 c 128,-1,46
 748 554 748 554 776.5 526.5 c 128,-1,47
 805 499 805 499 848.5 482 c 128,-1,48
 892 465 892 465 956 465 c 256,49,50
 1020 465 1020 465 1063.5 482 c 128,-1,51
 1107 499 1107 499 1136 526.5 c 128,-1,52
 1165 554 1165 554 1180.5 589 c 128,-1,53
 1196 624 1196 624 1203 659.5 c 128,-1,54
 1210 695 1210 695 1211.5 728 c 128,-1,55
 1213 761 1213 761 1213 786 c 256,56,57
 1213 811 1213 811 1211.5 844 c 128,-1,58
 1210 877 1210 877 1203 912 c 128,-1,59
 1196 947 1196 947 1180.5 981 c 128,-1,60
 1165 1015 1165 1015 1136 1042 c 128,-1,61
 1107 1069 1107 1069 1063.5 1085.5 c 128,-1,62
 1020 1102 1020 1102 956 1102 c 256,35,36
EndSplineSet
EndChar

StartChar: R
Encoding: 82 82 21
Width: 1942
GlyphClass: 2
Flags: W
LayerCount: 2
Fore
SplineSet
923 549 m 1,0,-1
 888 549 l 1,1,-1
 888 0 l 1,2,-1
 120 0 l 1,3,-1
 120 434 l 1,4,-1
 248 459 l 1,5,-1
 248 1077 l 1,6,-1
 120 1102 l 1,7,-1
 120 1536 l 1,8,-1
 991 1536 l 2,9,10
 1164 1536 1164 1536 1290 1520 c 128,-1,11
 1416 1504 1416 1504 1504 1474.5 c 128,-1,12
 1592 1445 1592 1445 1646.5 1402.5 c 128,-1,13
 1701 1360 1701 1360 1731.5 1306.5 c 128,-1,14
 1762 1253 1762 1253 1772.5 1189.5 c 128,-1,15
 1783 1126 1783 1126 1783 1055 c 0,16,17
 1783 983 1783 983 1770.5 924.5 c 128,-1,18
 1758 866 1758 866 1726 817 c 128,-1,19
 1694 768 1694 768 1639 727.5 c 128,-1,20
 1584 687 1584 687 1499 651 c 1,21,-1
 1849 0 l 1,22,-1
 1147 0 l 1,23,-1
 923 549 l 1,0,-1
888 844 m 1,24,25
 946 844 946 844 993.5 849 c 128,-1,26
 1041 854 1041 854 1074.5 872 c 128,-1,27
 1108 890 1108 890 1126 925 c 128,-1,28
 1144 960 1144 960 1144 1019 c 0,29,30
 1144 1077 1144 1077 1126 1111.5 c 128,-1,31
 1108 1146 1108 1146 1074.5 1165 c 128,-1,32
 1041 1184 1041 1184 993.5 1190 c 128,-1,33
 946 1196 946 1196 888 1196 c 1,34,-1
 888 844 l 1,24,25
EndSplineSet
EndChar

StartChar: S
Encoding: 83 83 22
Width: 1501
GlyphClass: 2
Flags: W
LayerCount: 2
Fore
SplineSet
690 -39 m 0,0,1
 565 -39 565 -39 457.5 -21 c 128,-1,2
 350 -3 350 -3 269 19 c 0,3,4
 174 45 174 45 94 77 c 1,5,-1
 174 568 l 1,6,7
 251 530 251 530 331 501 c 0,8,9
 365 488 365 488 403.5 476 c 128,-1,10
 442 464 442 464 481.5 454.5 c 128,-1,11
 521 445 521 445 561 439.5 c 128,-1,12
 601 434 601 434 639 434 c 0,13,14
 678 434 678 434 701.5 440.5 c 128,-1,15
 725 447 725 447 738 456.5 c 128,-1,16
 751 466 751 466 755.5 478 c 128,-1,17
 760 490 760 490 760 502 c 1,18,19
 682 510 682 510 604.5 525.5 c 128,-1,20
 527 541 527 541 456.5 566.5 c 128,-1,21
 386 592 386 592 325.5 631 c 128,-1,22
 265 670 265 670 220.5 726.5 c 128,-1,23
 176 783 176 783 151 858.5 c 128,-1,24
 126 934 126 934 126 1033 c 0,25,26
 126 1145 126 1145 152.5 1229 c 128,-1,27
 179 1313 179 1313 226 1373 c 128,-1,28
 273 1433 273 1433 337 1472.5 c 128,-1,29
 401 1512 401 1512 475 1535 c 128,-1,30
 549 1558 549 1558 630.5 1567 c 128,-1,31
 712 1576 712 1576 794 1576 c 0,32,33
 919 1576 919 1576 1025.5 1558 c 128,-1,34
 1132 1540 1132 1540 1212 1518 c 0,35,36
 1305 1492 1305 1492 1382 1460 c 1,37,-1
 1382 981 l 1,38,39
 1307 1018 1307 1018 1224 1048 c 0,40,41
 1189 1060 1189 1060 1148.5 1072 c 128,-1,42
 1108 1084 1108 1084 1064.5 1093.5 c 128,-1,43
 1021 1103 1021 1103 975 1109 c 128,-1,44
 929 1115 929 1115 884 1115 c 0,45,46
 866 1115 866 1115 843 1113.5 c 128,-1,47
 820 1112 820 1112 800 1105 c 128,-1,48
 780 1098 780 1098 766 1083.5 c 128,-1,49
 752 1069 752 1069 752 1044 c 1,50,51
 912 1038 912 1038 1033 1004.5 c 128,-1,52
 1154 971 1154 971 1235.5 904.5 c 128,-1,53
 1317 838 1317 838 1358.5 734 c 128,-1,54
 1400 630 1400 630 1400 482 c 0,55,56
 1400 373 1400 373 1370 292 c 128,-1,57
 1340 211 1340 211 1288 153.5 c 128,-1,58
 1236 96 1236 96 1166.5 58.5 c 128,-1,59
 1097 21 1097 21 1018 -0.5 c 128,-1,60
 939 -22 939 -22 855 -30.5 c 128,-1,61
 771 -39 771 -39 690 -39 c 0,0,1
EndSplineSet
EndChar

StartChar: T
Encoding: 84 84 23
Width: 1584
GlyphClass: 2
Flags: W
LayerCount: 2
Fore
SplineSet
88 1536 m 1,0,-1
 1496 1536 l 1,1,-1
 1496 1063 l 1,2,3
 1440 1077 1440 1077 1378 1088 c 0,4,5
 1324 1098 1324 1098 1255 1106 c 128,-1,6
 1186 1114 1186 1114 1112 1114 c 1,7,-1
 1112 459 l 1,8,-1
 1240 434 l 1,9,-1
 1240 0 l 1,10,-1
 344 0 l 1,11,-1
 344 434 l 1,12,-1
 472 459 l 1,13,-1
 472 1114 l 1,14,15
 398 1114 398 1114 329 1106 c 128,-1,16
 260 1098 260 1098 206 1088 c 0,17,18
 143 1077 143 1077 88 1063 c 1,19,-1
 88 1536 l 1,0,-1
EndSplineSet
EndChar

StartChar: U
Encoding: 85 85 24
Width: 1962
GlyphClass: 2
Flags: W
LayerCount: 2
Fore
SplineSet
1236 1100 m 1,0,-1
 1236 1536 l 1,1,-1
 1876 1536 l 1,2,-1
 1876 1100 l 1,3,-1
 1747 1075 l 1,4,-1
 1747 954 l 2,5,6
 1747 930 1747 930 1747 905 c 128,-1,7
 1747 880 1747 880 1747.5 857.5 c 128,-1,8
 1748 835 1748 835 1748 816.5 c 128,-1,9
 1748 798 1748 798 1748 786 c 0,10,11
 1748 565 1748 565 1691 408.5 c 128,-1,12
 1634 252 1634 252 1537 152.5 c 128,-1,13
 1440 53 1440 53 1310.5 7 c 128,-1,14
 1181 -39 1181 -39 1036 -39 c 0,15,16
 864 -39 864 -39 714 7 c 128,-1,17
 564 53 564 53 452.5 152.5 c 128,-1,18
 341 252 341 252 276.5 408.5 c 128,-1,19
 212 565 212 565 212 786 c 2,20,-1
 212 1075 l 1,21,-1
 84 1100 l 1,22,-1
 84 1536 l 1,23,-1
 980 1536 l 1,24,-1
 980 1100 l 1,25,-1
 852 1075 l 1,26,-1
 852 786 l 2,27,28
 852 761 852 761 854 728 c 128,-1,29
 856 695 856 695 864 659.5 c 128,-1,30
 872 624 872 624 888.5 589 c 128,-1,31
 905 554 905 554 934.5 526.5 c 128,-1,32
 964 499 964 499 1008 482 c 128,-1,33
 1052 465 1052 465 1116 465 c 0,34,35
 1177 465 1177 465 1219.5 482 c 128,-1,36
 1262 499 1262 499 1289.5 526.5 c 128,-1,37
 1317 554 1317 554 1332 589 c 128,-1,38
 1347 624 1347 624 1354 659.5 c 128,-1,39
 1361 695 1361 695 1362.5 728 c 128,-1,40
 1364 761 1364 761 1364 786 c 2,41,-1
 1364 1075 l 1,42,-1
 1236 1100 l 1,0,-1
EndSplineSet
EndChar

StartChar: Y
Encoding: 89 89 25
Width: 1886
GlyphClass: 2
Flags: W
LayerCount: 2
Fore
SplineSet
499 0 m 1,0,-1
 499 432 l 1,1,-1
 627 464 l 1,2,-1
 67 1536 l 1,3,-1
 707 1536 l 1,4,-1
 943 1004 l 1,5,-1
 1179 1536 l 1,6,-1
 1819 1536 l 1,7,-1
 1259 464 l 1,8,-1
 1387 432 l 1,9,-1
 1387 0 l 1,10,-1
 499 0 l 1,0,-1
EndSplineSet
EndChar

StartChar: h
Encoding: 104 104 26
Width: 1681
GlyphClass: 2
Flags: W
LayerCount: 2
Fore
SplineSet
172 510 m 0,0,1
 174 510 174 510 178 512.5 c 128,-1,2
 182 515 182 515 184 518 c 1,3,-1
 236 684 l 2,4,5
 236 687 236 687 237.5 694 c 128,-1,6
 239 701 239 701 242 705 c 1,7,-1
 287 844 l 1,8,9
 289 864 289 864 296.5 882.5 c 128,-1,10
 304 901 304 901 307 920 c 1,11,-1
 365 1102 l 1,12,-1
 365 1104 l 2,13,14
 365 1106 365 1106 366 1107 c 128,-1,15
 367 1108 367 1108 367 1110 c 2,16,-1
 471 1452 l 2,17,18
 471 1454 471 1454 473.5 1459 c 128,-1,19
 476 1464 476 1464 479 1466 c 1,20,-1
 516 1466 l 2,21,22
 559 1466 559 1466 600.5 1467 c 128,-1,23
 642 1468 642 1468 684 1468 c 0,24,25
 710 1468 710 1468 729.5 1467 c 128,-1,26
 749 1466 749 1466 768 1466 c 0,27,28
 776 1466 776 1466 783.5 1466 c 128,-1,29
 791 1466 791 1466 799 1468 c 1,30,-1
 1176 1468 l 2,31,32
 1179 1468 1179 1468 1185.5 1467 c 128,-1,33
 1192 1466 1192 1466 1194 1460 c 2,34,-1
 1243 1309 l 2,35,36
 1245 1305 1245 1305 1245 1300 c 2,37,-1
 1245 1296 l 1,38,39
 1262 1247 1262 1247 1279.5 1199 c 128,-1,40
 1297 1151 1297 1151 1313 1100 c 1,41,42
 1313 1095 1313 1095 1317.5 1091.5 c 128,-1,43
 1322 1088 1322 1088 1327 1084 c 128,-1,44
 1332 1080 1332 1080 1336.5 1074.5 c 128,-1,45
 1341 1069 1341 1069 1341 1061 c 0,46,47
 1341 1056 1341 1056 1340 1054.5 c 128,-1,48
 1339 1053 1339 1053 1339 1051 c 256,49,50
 1339 1049 1339 1049 1342.5 1046 c 128,-1,51
 1346 1043 1346 1043 1346 1040 c 0,52,53
 1346 1032 1346 1032 1343.5 1024 c 128,-1,54
 1341 1016 1341 1016 1341 1010 c 1,55,-1
 1393 842 l 1,56,57
 1404 826 1404 826 1405 807 c 128,-1,58
 1406 788 1406 788 1417 772 c 1,59,-1
 1495 528 l 1,60,61
 1498 515 1498 515 1511 512 c 1,62,-1
 1618 502 l 1,63,64
 1626 498 1626 498 1626 477 c 0,65,66
 1626 388 1626 388 1625.5 336.5 c 128,-1,67
 1625 285 1625 285 1624 255 c 128,-1,68
 1623 225 1623 225 1622.5 209.5 c 128,-1,69
 1622 194 1622 194 1622 176 c 0,70,71
 1622 164 1622 164 1623 150 c 128,-1,72
 1624 136 1624 136 1624 131 c 2,73,-1
 1626 16 l 2,74,75
 1626 10 1626 10 1621 6.5 c 128,-1,76
 1616 3 1616 3 1608.5 1 c 128,-1,77
 1601 -1 1601 -1 1592.5 -1.5 c 128,-1,78
 1584 -2 1584 -2 1577 -2 c 0,79,80
 1575 -2 1575 -2 1567.5 -1.5 c 128,-1,81
 1560 -1 1560 -1 1551 -1 c 128,-1,82
 1542 -1 1542 -1 1534 -0.5 c 128,-1,83
 1526 0 1526 0 1524 0 c 0,84,85
 1508 0 1508 0 1495 -1 c 128,-1,86
 1482 -2 1482 -2 1468 -2 c 0,87,88
 1423 -2 1423 -2 1380 -1 c 128,-1,89
 1337 0 1337 0 1292 0 c 0,90,91
 1244 0 1244 0 1197 -1 c 128,-1,92
 1150 -2 1150 -2 1102 -2 c 0,93,94
 1098 -2 1098 -2 1091 -2 c 128,-1,95
 1084 -2 1084 -2 1077 -1.5 c 128,-1,96
 1070 -1 1070 -1 1064.5 1 c 128,-1,97
 1059 3 1059 3 1059 8 c 1,98,-1
 1008 186 l 2,99,100
 1005 194 1005 194 996 196.5 c 128,-1,101
 987 199 987 199 979 199 c 0,102,103
 978 199 978 199 973.5 198.5 c 128,-1,104
 969 198 969 198 963.5 198 c 128,-1,105
 958 198 958 198 952.5 197.5 c 128,-1,106
 947 197 947 197 946 197 c 0,107,108
 943 197 943 197 938 198 c 128,-1,109
 933 199 933 199 930 199 c 0,110,111
 904 199 904 199 877.5 198 c 128,-1,112
 851 197 851 197 825 197 c 0,113,114
 797 197 797 197 780 198 c 128,-1,115
 763 199 763 199 741 199 c 0,116,117
 736 199 736 199 725.5 198.5 c 128,-1,118
 715 198 715 198 702.5 198 c 128,-1,119
 690 198 690 198 679 197.5 c 128,-1,120
 668 197 668 197 664 197 c 1,121,122
 658 194 658 194 654 184.5 c 128,-1,123
 650 175 650 175 648 164 c 0,124,125
 645 152 645 152 643 137 c 1,126,-1
 618 43 l 1,127,128
 612 34 612 34 610.5 20 c 128,-1,129
 609 6 609 6 600 0 c 1,130,131
 564 0 564 0 516 -0.5 c 128,-1,132
 468 -1 468 -1 424 -1 c 128,-1,133
 380 -1 380 -1 349 -1.5 c 128,-1,134
 318 -2 318 -2 315 -2 c 0,135,136
 313 -2 313 -2 305 -1 c 128,-1,137
 297 0 297 0 295 0 c 0,138,139
 236 0 236 0 180.5 -1 c 128,-1,140
 125 -2 125 -2 68 -2 c 0,141,142
 62 -2 62 -2 58.5 4.5 c 128,-1,143
 55 11 55 11 54 20.5 c 128,-1,144
 53 30 53 30 53 40 c 128,-1,145
 53 50 53 50 53 57 c 2,146,-1
 53 483 l 2,147,148
 53 492 53 492 64.5 496.5 c 128,-1,149
 76 501 76 501 93.5 503 c 128,-1,150
 111 505 111 505 132 506 c 128,-1,151
 153 507 153 507 172 510 c 0,0,1
1182 27 m 1,152,-1
 1190 27 l 1,153,-1
 1190 33 l 1,154,-1
 1182 33 l 1,155,-1
 1182 27 l 1,152,-1
1217 57 m 1,156,157
 1212 57 1212 57 1208 53.5 c 128,-1,158
 1204 50 1204 50 1204 45 c 1,159,160
 1209 45 1209 45 1213 48.5 c 128,-1,161
 1217 52 1217 52 1217 57 c 1,156,157
1225 66 m 1,162,-1
 1229 66 l 1,163,-1
 1229 70 l 1,164,-1
 1225 70 l 1,165,-1
 1225 66 l 1,162,-1
829 571 m 0,166,167
 843 571 843 571 856.5 568 c 128,-1,168
 870 565 870 565 883 565 c 0,169,170
 889 565 889 565 891 569 c 1,171,-1
 940 569 l 1,172,173
 940 577 940 577 940 586.5 c 128,-1,174
 940 596 940 596 938 604 c 2,175,-1
 877 809 l 1,176,-1
 836 956 l 2,177,178
 836 958 836 958 833.5 961.5 c 128,-1,179
 831 965 831 965 829 965 c 0,180,181
 821 965 821 965 818 955.5 c 128,-1,182
 815 946 815 946 813 940 c 2,183,-1
 723 590 l 1,184,-1
 723 571 l 1,185,186
 724 570 724 570 726 570 c 0,187,188
 728 569 728 569 731 569 c 0,189,190
 754 569 754 569 778.5 570 c 128,-1,191
 803 571 803 571 829 571 c 0,166,167
EndSplineSet
EndChar

StartChar: j
Encoding: 106 106 27
Width: 1704
GlyphClass: 2
Flags: W
LayerCount: 2
Fore
SplineSet
68 31 m 1,0,1
 68 67 68 67 67.5 106 c 128,-1,2
 67 145 67 145 67 181 c 128,-1,3
 67 217 67 217 66.5 248 c 128,-1,4
 66 279 66 279 66 299 c 0,5,6
 66 302 66 302 67 310 c 128,-1,7
 68 318 68 318 68 322 c 2,8,-1
 68 498 l 2,9,10
 68 507 68 507 87.5 508.5 c 128,-1,11
 107 510 107 510 131.5 510.5 c 128,-1,12
 156 511 156 511 177.5 514 c 128,-1,13
 199 517 199 517 203 530 c 2,14,-1
 242 666 l 1,15,16
 247 672 247 672 247 677.5 c 128,-1,17
 247 683 247 683 250 688 c 1,18,-1
 301 848 l 1,19,20
 301 852 301 852 302 857.5 c 128,-1,21
 303 863 303 863 305 868 c 0,22,23
 307 874 307 874 309 881 c 2,24,-1
 354 1034 l 2,25,26
 355 1034 355 1034 359.5 1046.5 c 128,-1,27
 364 1059 364 1059 370.5 1078.5 c 128,-1,28
 377 1098 377 1098 384.5 1122 c 128,-1,29
 392 1146 392 1146 399 1168.5 c 128,-1,30
 406 1191 406 1191 411.5 1209.5 c 128,-1,31
 417 1228 417 1228 420 1237 c 2,32,-1
 481 1446 l 1,33,34
 481 1458 481 1458 486 1465 c 128,-1,35
 491 1472 491 1472 499 1475.5 c 128,-1,36
 507 1479 507 1479 516.5 1480 c 128,-1,37
 526 1481 526 1481 535 1481 c 1,38,39
 529 1479 529 1479 542 1478 c 128,-1,40
 555 1477 555 1477 575 1476.5 c 128,-1,41
 595 1476 595 1476 614.5 1475.5 c 128,-1,42
 634 1475 634 1475 641 1475 c 2,43,-1
 770 1475 l 1,44,-1
 1012 1475 l 1,45,46
 1016 1473 1016 1473 1024 1473 c 0,47,48
 1062 1473 1062 1473 1097.5 1474 c 128,-1,49
 1133 1475 1133 1475 1171 1475 c 0,50,51
 1184 1475 1184 1475 1194 1473 c 128,-1,52
 1204 1471 1204 1471 1206 1464 c 2,53,-1
 1239 1362 l 1,54,55
 1244 1355 1244 1355 1246 1346 c 128,-1,56
 1248 1337 1248 1337 1249.5 1327 c 128,-1,57
 1251 1317 1251 1317 1253 1308 c 128,-1,58
 1255 1299 1255 1299 1260 1292 c 1,59,-1
 1303 1159 l 1,60,-1
 1309 1151 l 2,61,62
 1310 1148 1310 1148 1311.5 1141 c 128,-1,63
 1313 1134 1313 1134 1315 1125.5 c 128,-1,64
 1317 1117 1317 1117 1318.5 1110 c 128,-1,65
 1320 1103 1320 1103 1321 1100 c 0,66,67
 1322 1100 1322 1100 1324 1098 c 0,68,69
 1325 1097 1325 1097 1325 1096 c 2,70,-1
 1407 836 l 1,71,-1
 1468 645 l 2,72,73
 1471 634 1471 634 1477.5 613 c 128,-1,74
 1484 592 1484 592 1492 571 c 128,-1,75
 1500 550 1500 550 1506.5 534.5 c 128,-1,76
 1513 519 1513 519 1516 518 c 2,77,-1
 1614 512 l 1,78,79
 1617 510 1617 510 1626 508 c 128,-1,80
 1635 506 1635 506 1638 500 c 1,81,82
 1638 441 1638 441 1636 387 c 128,-1,83
 1634 333 1634 333 1634 274 c 0,84,85
 1634 222 1634 222 1636 168.5 c 128,-1,86
 1638 115 1638 115 1638 61 c 0,87,88
 1638 50 1638 50 1637 42 c 128,-1,89
 1636 34 1636 34 1636 25 c 2,90,-1
 1636 16 l 1,91,92
 1633 10 1633 10 1628 10 c 2,93,-1
 1571 4 l 1,94,95
 1532 4 1532 4 1485.5 3.5 c 128,-1,96
 1439 3 1439 3 1396 3 c 128,-1,97
 1353 3 1353 3 1318.5 2.5 c 128,-1,98
 1284 2 1284 2 1268 2 c 256,99,100
 1252 2 1252 2 1218.5 1.5 c 128,-1,101
 1185 1 1185 1 1151.5 2 c 128,-1,102
 1118 3 1118 3 1092.5 6.5 c 128,-1,103
 1067 10 1067 10 1067 18 c 1,104,-1
 1016 193 l 1,105,106
 1016 201 1016 201 1006 201 c 2,107,-1
 971 201 l 2,108,109
 937 201 937 201 906.5 202 c 128,-1,110
 876 203 876 203 842 203 c 256,111,112
 808 203 808 203 779 202 c 128,-1,113
 750 201 750 201 719 201 c 2,114,-1
 686 201 l 1,115,116
 680 199 680 199 675.5 198 c 128,-1,117
 671 197 671 197 668 190 c 1,118,-1
 623 23 l 1,119,120
 620 19 620 19 619 15.5 c 128,-1,121
 618 12 618 12 617 9 c 128,-1,122
 616 6 616 6 613.5 4.5 c 128,-1,123
 611 3 611 3 604 2 c 1,124,125
 542 2 542 2 481 3 c 128,-1,126
 420 4 420 4 358 4 c 0,127,128
 322 4 322 4 296.5 3.5 c 128,-1,129
 271 3 271 3 249.5 3 c 128,-1,130
 228 3 228 3 207.5 2.5 c 128,-1,131
 187 2 187 2 160 2 c 0,132,133
 146 2 146 2 131.5 2 c 128,-1,134
 117 2 117 2 104.5 3 c 128,-1,135
 92 4 92 4 83 5.5 c 128,-1,136
 74 7 74 7 72 10 c 1,137,-1
 68 31 l 1,0,1
733 575 m 2,138,139
 733 573 733 573 735 573 c 2,140,-1
 915 573 l 2,141,142
 917 573 917 573 919 574 c 0,143,144
 921 574 921 574 922 574.5 c 128,-1,145
 923 575 923 575 924 575 c 2,146,-1
 938 573 l 2,147,148
 935 573 935 573 943.5 572.5 c 128,-1,149
 952 572 952 572 952 575 c 2,150,-1
 952 592 l 1,151,-1
 936 653 l 1,152,-1
 891 809 l 1,153,154
 891 826 891 826 885 850.5 c 128,-1,155
 879 875 879 875 871 900 c 128,-1,156
 863 925 863 925 854.5 945.5 c 128,-1,157
 846 966 846 966 842 975 c 1,158,159
 837 975 837 975 835 964 c 128,-1,160
 833 953 833 953 829 948 c 1,161,-1
 811 870 l 1,162,-1
 807 864 l 1,163,-1
 795 809 l 1,164,-1
 733 586 l 1,165,-1
 733 582 l 1,166,-1
 733 575 l 2,138,139
EndSplineSet
EndChar

StartChar: l
Encoding: 108 108 28
Width: 961
GlyphClass: 2
Flags: W
LayerCount: 2
Fore
SplineSet
41 0 m 0,0,1
 35 0 35 0 33 5 c 128,-1,2
 31 10 31 10 31 16 c 0,3,4
 31 45 31 45 32 74 c 128,-1,5
 33 103 33 103 33 132 c 0,6,7
 33 144 33 144 32.5 151 c 128,-1,8
 32 158 32 158 32 162.5 c 128,-1,9
 32 167 32 167 31.5 169.5 c 128,-1,10
 31 172 31 172 31 177 c 0,11,12
 31 179 31 179 32 189 c 128,-1,13
 33 199 33 199 33 201 c 2,14,-1
 33 380 l 2,15,16
 33 384 33 384 32 392 c 128,-1,17
 31 400 31 400 31 403 c 0,18,19
 31 407 31 407 32 413 c 128,-1,20
 33 419 33 419 33 421 c 1,21,-1
 39 423 l 1,22,23
 53 423 53 423 69.5 423.5 c 128,-1,24
 86 424 86 424 101.5 425.5 c 128,-1,25
 117 427 117 427 129.5 429 c 128,-1,26
 142 431 142 431 148 434 c 1,27,28
 153 464 153 464 153.5 497 c 128,-1,29
 154 530 154 530 154 562 c 0,30,31
 154 583 154 583 153.5 610.5 c 128,-1,32
 153 638 153 638 152.5 664.5 c 128,-1,33
 152 691 152 691 151.5 712 c 128,-1,34
 151 733 151 733 150 741 c 0,35,36
 150 743 150 743 151 750.5 c 128,-1,37
 152 758 152 758 154 760 c 1,38,-1
 154 1102 l 2,39,40
 154 1106 154 1106 136 1108 c 128,-1,41
 118 1110 118 1110 96.5 1111.5 c 128,-1,42
 75 1113 75 1113 57 1114.5 c 128,-1,43
 39 1116 39 1116 39 1118 c 2,44,-1
 37 1124 l 1,45,46
 37 1149 37 1149 35 1177 c 128,-1,47
 33 1205 33 1205 33 1215 c 0,48,49
 33 1228 33 1228 35 1239 c 128,-1,50
 37 1250 37 1250 37 1264 c 0,51,52
 37 1293 37 1293 35 1321.5 c 128,-1,53
 33 1350 33 1350 33 1379 c 0,54,55
 33 1381 33 1381 34 1384 c 128,-1,56
 35 1387 35 1387 37 1387 c 1,57,58
 37 1421 37 1421 35 1444.5 c 128,-1,59
 33 1468 33 1468 33 1492 c 1,60,61
 34 1493 34 1493 34.5 1498.5 c 128,-1,62
 35 1504 35 1504 35 1510.5 c 128,-1,63
 35 1517 35 1517 35.5 1523 c 128,-1,64
 36 1529 36 1529 37 1531 c 1,65,66
 43 1532 43 1532 57 1532.5 c 128,-1,67
 71 1533 71 1533 87 1534 c 128,-1,68
 103 1535 103 1535 117.5 1535.5 c 128,-1,69
 132 1536 132 1536 137 1537 c 1,70,71
 155 1537 155 1537 173.5 1535 c 128,-1,72
 192 1533 192 1533 210 1533 c 0,73,74
 216 1533 216 1533 223.5 1533.5 c 128,-1,75
 231 1534 231 1534 237.5 1535 c 128,-1,76
 244 1536 244 1536 249 1536.5 c 128,-1,77
 254 1537 254 1537 255 1537 c 0,78,79
 263 1537 263 1537 270.5 1535 c 128,-1,80
 278 1533 278 1533 286 1533 c 256,81,82
 294 1533 294 1533 295.5 1536 c 128,-1,83
 297 1539 297 1539 302 1539 c 0,84,85
 304 1539 304 1539 306 1537 c 128,-1,86
 308 1535 308 1535 310 1533 c 1,87,-1
 590 1533 l 1,88,89
 597 1535 597 1535 618.5 1536 c 128,-1,90
 640 1537 640 1537 668.5 1537 c 128,-1,91
 697 1537 697 1537 728.5 1537 c 128,-1,92
 760 1537 760 1537 786 1537 c 0,93,94
 788 1537 788 1537 792.5 1538 c 128,-1,95
 797 1539 797 1539 799 1539 c 1,96,97
 800 1538 800 1538 802 1538 c 0,98,99
 804 1537 804 1537 807 1537 c 0,100,101
 821 1537 821 1537 836 1538 c 128,-1,102
 851 1539 851 1539 865 1539 c 0,103,104
 878 1539 878 1539 883.5 1531 c 128,-1,105
 889 1523 889 1523 890.5 1512 c 128,-1,106
 892 1501 892 1501 891.5 1488.5 c 128,-1,107
 891 1476 891 1476 891 1466 c 0,108,109
 891 1403 891 1403 890 1342.5 c 128,-1,110
 889 1282 889 1282 889 1221 c 2,111,-1
 889 1159 l 2,112,113
 889 1155 889 1155 889 1148 c 128,-1,114
 889 1141 889 1141 887.5 1134.5 c 128,-1,115
 886 1128 886 1128 883.5 1123 c 128,-1,116
 881 1118 881 1118 876 1118 c 2,117,-1
 775 1106 l 1,118,-1
 767 1089 l 1,119,-1
 767 1026 l 2,120,121
 767 965 767 965 766 906 c 128,-1,122
 765 847 765 847 765 786 c 0,123,124
 765 768 765 768 766 749.5 c 128,-1,125
 767 731 767 731 767 711 c 0,126,127
 767 674 767 674 766 636.5 c 128,-1,128
 765 599 765 599 765 562 c 0,129,130
 765 544 765 544 764 523 c 128,-1,131
 763 502 763 502 763.5 483.5 c 128,-1,132
 764 465 764 465 766.5 451 c 128,-1,133
 769 437 769 437 775 434 c 1,134,135
 818 434 818 434 841 429.5 c 128,-1,136
 864 425 864 425 874 417.5 c 128,-1,137
 884 410 884 410 884.5 401 c 128,-1,138
 885 392 885 392 883 382 c 128,-1,139
 881 372 881 372 881 362 c 128,-1,140
 881 352 881 352 889 344 c 1,141,-1
 889 342 l 1,142,143
 883 310 883 310 881.5 270 c 128,-1,144
 880 230 880 230 880.5 186.5 c 128,-1,145
 881 143 881 143 882.5 97 c 128,-1,146
 884 51 884 51 884 6 c 1,147,-1
 878 0 l 1,148,-1
 133 -2 l 1,149,150
 120 0 120 0 106 1 c 128,-1,151
 92 2 92 2 78 2 c 0,152,153
 67 2 67 2 58 1 c 128,-1,154
 49 0 49 0 41 0 c 0,0,1
EndSplineSet
EndChar

StartChar: p
Encoding: 112 112 29
Width: 1440
GlyphClass: 2
Flags: W
LayerCount: 2
Fore
SplineSet
74 -4 m 1,0,1
 74 19 74 19 73.5 50.5 c 128,-1,2
 73 82 73 82 72 111 c 0,3,4
 71 144 71 144 70 180 c 0,5,6
 70 184 70 184 70.5 197 c 128,-1,7
 71 210 71 210 72 225 c 128,-1,8
 73 240 73 240 73.5 253 c 128,-1,9
 74 266 74 266 74 270 c 0,10,11
 76 296 76 296 73 308 c 128,-1,12
 70 320 70 320 70 334 c 0,13,14
 70 363 70 363 81 373 c 128,-1,15
 92 383 92 383 108.5 384.5 c 128,-1,16
 125 386 125 386 144 384.5 c 128,-1,17
 163 383 163 383 180 389 c 1,18,-1
 186 395 l 1,19,-1
 186 1014 l 2,20,21
 186 1031 186 1031 169.5 1034.5 c 128,-1,22
 153 1038 153 1038 132.5 1038 c 128,-1,23
 112 1038 112 1038 94.5 1038 c 128,-1,24
 77 1038 77 1038 76 1047 c 1,25,-1
 70 1071 l 1,26,-1
 70 1231 l 1,27,28
 72 1234 72 1234 73 1243 c 128,-1,29
 74 1252 74 1252 74 1255 c 0,30,31
 74 1273 74 1273 73 1303.5 c 128,-1,32
 72 1334 72 1334 71 1364.5 c 128,-1,33
 70 1395 70 1395 69 1418 c 128,-1,34
 68 1441 68 1441 68 1444 c 1,35,36
 70 1447 70 1447 80 1448.5 c 128,-1,37
 90 1450 90 1450 92 1450 c 2,38,-1
 158 1450 l 2,39,40
 160 1450 160 1450 164 1449 c 128,-1,41
 168 1448 168 1448 170 1448 c 0,42,43
 173 1448 173 1448 184.5 1449 c 128,-1,44
 196 1450 196 1450 199 1450 c 2,45,-1
 537 1450 l 1,46,47
 540 1452 540 1452 552 1453 c 128,-1,48
 564 1454 564 1454 569 1454 c 0,49,50
 570 1454 570 1454 580 1450 c 1,51,52
 611 1450 611 1450 632 1449.5 c 128,-1,53
 653 1449 653 1449 678 1454 c 1,54,-1
 938 1454 l 1,55,56
 940 1456 940 1456 944 1456 c 0,57,58
 1018 1456 1018 1456 1089.5 1453 c 128,-1,59
 1161 1450 1161 1450 1235 1450 c 0,60,61
 1255 1450 1255 1450 1274 1452 c 128,-1,62
 1293 1454 1293 1454 1313 1454 c 0,63,64
 1316 1454 1316 1454 1318 1453.5 c 128,-1,65
 1320 1453 1320 1453 1323 1450 c 1,66,-1
 1382 1448 l 2,67,68
 1384 1448 1384 1448 1386.5 1438 c 128,-1,69
 1389 1428 1389 1428 1389 1423 c 0,70,71
 1389 1360 1389 1360 1385.5 1300.5 c 128,-1,72
 1382 1241 1382 1241 1382 1178 c 0,73,74
 1382 1137 1382 1137 1385.5 1096.5 c 128,-1,75
 1389 1056 1389 1056 1389 1016 c 0,76,77
 1389 1006 1389 1006 1389.5 992.5 c 128,-1,78
 1390 979 1390 979 1389.5 967 c 128,-1,79
 1389 955 1389 955 1386 946.5 c 128,-1,80
 1383 938 1383 938 1376 938 c 0,81,82
 1367 938 1367 938 1356 941 c 128,-1,83
 1345 944 1345 944 1337 950 c 1,84,85
 1277 971 1277 971 1210 987.5 c 128,-1,86
 1143 1004 1143 1004 1077 1016 c 128,-1,87
 1011 1028 1011 1028 951 1034 c 128,-1,88
 891 1040 891 1040 844 1040 c 2,89,-1
 766 1040 l 2,90,91
 764 1040 764 1040 762 1039 c 0,92,93
 758 1037 758 1037 758 1036 c 2,94,-1
 758 840 l 1,95,-1
 762 836 l 2,96,97
 763 835 763 835 765 835 c 0,98,99
 767 834 767 834 770 834 c 0,100,101
 786 834 786 834 808 837.5 c 128,-1,102
 830 841 830 841 844 846 c 1,103,104
 848 846 848 846 858 849 c 128,-1,105
 868 852 868 852 880.5 856 c 128,-1,106
 893 860 893 860 907.5 863 c 128,-1,107
 922 866 922 866 936 866 c 1,108,109
 941 868 941 868 942 869 c 128,-1,110
 943 870 943 870 948 870 c 0,111,112
 970 870 970 870 990 874 c 128,-1,113
 1010 878 1010 878 1028.5 883.5 c 128,-1,114
 1047 889 1047 889 1064.5 893 c 128,-1,115
 1082 897 1082 897 1100 897 c 0,116,117
 1115 897 1115 897 1118.5 887.5 c 128,-1,118
 1122 878 1122 878 1122 864 c 0,119,120
 1122 833 1122 833 1121 801.5 c 128,-1,121
 1120 770 1120 770 1120 741 c 0,122,123
 1120 704 1120 704 1121 668.5 c 128,-1,124
 1122 633 1122 633 1122 598 c 0,125,126
 1122 586 1122 586 1123 572.5 c 128,-1,127
 1124 559 1124 559 1123 547 c 128,-1,128
 1122 535 1122 535 1118 526.5 c 128,-1,129
 1114 518 1114 518 1104 516 c 1,130,-1
 1026 532 l 1,131,-1
 879 561 l 1,132,133
 875 563 875 563 866 565.5 c 128,-1,134
 857 568 857 568 847.5 570 c 128,-1,135
 838 572 838 572 828.5 573.5 c 128,-1,136
 819 575 819 575 815 575 c 0,137,138
 813 575 813 575 811 574 c 128,-1,139
 809 573 809 573 809 571 c 2,140,-1
 809 410 l 2,141,142
 809 401 809 401 821 398.5 c 128,-1,143
 833 396 833 396 851 395.5 c 128,-1,144
 869 395 869 395 890 395.5 c 128,-1,145
 911 396 911 396 929 393 c 128,-1,146
 947 390 947 390 959 382 c 128,-1,147
 971 374 971 374 971 358 c 0,148,149
 971 350 971 350 970 341 c 128,-1,150
 969 332 969 332 969 326 c 2,151,-1
 969 -8 l 2,152,153
 969 -14 969 -14 958 -15 c 128,-1,154
 947 -16 947 -16 944 -16 c 256,155,156
 941 -16 941 -16 934.5 -15 c 128,-1,157
 928 -14 928 -14 926 -14 c 0,158,159
 731 -14 731 -14 541 -18.5 c 128,-1,160
 351 -23 351 -23 156 -23 c 0,161,162
 146 -23 146 -23 133 -23 c 128,-1,163
 120 -23 120 -23 107 -22 c 0,164,165
 92 -21 92 -21 76 -20 c 1,166,-1
 74 -4 l 1,167,-1
 74 -4 l 1,0,1
EndSplineSet
EndChar

StartChar: q
Encoding: 113 113 30
Width: 1686
GlyphClass: 2
Flags: W
LayerCount: 2
Fore
SplineSet
70 188 m 2,0,1
 70 190 70 190 69 196 c 128,-1,2
 68 202 68 202 68 205 c 0,3,4
 68 240 68 240 69 274.5 c 128,-1,5
 70 309 70 309 70 344 c 2,6,-1
 70 379 l 1,7,8
 73 384 73 384 77 384.5 c 128,-1,9
 81 385 81 385 86 387 c 1,10,-1
 178 393 l 1,11,12
 181 395 181 395 182.5 400.5 c 128,-1,13
 184 406 184 406 186 408 c 1,14,15
 186 442 186 442 185.5 471.5 c 128,-1,16
 185 501 185 501 184 528.5 c 128,-1,17
 183 556 183 556 182.5 582 c 128,-1,18
 182 608 182 608 182 637 c 0,19,20
 182 665 182 665 184 693.5 c 128,-1,21
 186 722 186 722 186 750 c 0,22,23
 186 821 186 821 184 890 c 128,-1,24
 182 959 182 959 182 1028 c 1,25,26
 179 1043 179 1043 161 1042 c 128,-1,27
 143 1041 143 1041 122 1040.5 c 128,-1,28
 101 1040 101 1040 84.5 1049.5 c 128,-1,29
 68 1059 68 1059 68 1096 c 2,30,-1
 70 1450 l 1,31,32
 93 1452 93 1452 115.5 1452 c 128,-1,33
 138 1452 138 1452 160 1452 c 2,34,-1
 270 1452 l 2,35,36
 293 1452 293 1452 316 1452 c 128,-1,37
 339 1452 339 1452 362 1454 c 1,38,-1
 850 1454 l 1,39,40
 864 1457 864 1457 877 1457.5 c 128,-1,41
 890 1458 890 1458 905 1458 c 0,42,43
 955 1458 955 1458 1005 1457 c 128,-1,44
 1055 1456 1055 1456 1105 1451.5 c 128,-1,45
 1155 1447 1155 1447 1204 1437.5 c 128,-1,46
 1253 1428 1253 1428 1300 1411 c 0,47,48
 1308 1408 1308 1408 1317.5 1403 c 128,-1,49
 1327 1398 1327 1398 1337 1392.5 c 128,-1,50
 1347 1387 1347 1387 1355.5 1383.5 c 128,-1,51
 1364 1380 1364 1380 1370 1380 c 2,52,-1
 1372 1380 l 1,53,54
 1426 1346 1426 1346 1467 1299 c 128,-1,55
 1508 1252 1508 1252 1528 1190 c 1,56,-1
 1528 1186 l 2,57,58
 1528 1187 1528 1187 1529.5 1179.5 c 128,-1,59
 1531 1172 1531 1172 1533.5 1159 c 128,-1,60
 1536 1146 1536 1146 1539 1131 c 128,-1,61
 1542 1116 1542 1116 1544 1104 c 0,62,63
 1544 1103 1544 1103 1545.5 1092 c 128,-1,64
 1547 1081 1547 1081 1547 1061 c 128,-1,65
 1547 1041 1547 1041 1543.5 1013.5 c 128,-1,66
 1540 986 1540 986 1530 952 c 0,67,68
 1523 930 1523 930 1504.5 899.5 c 128,-1,69
 1486 869 1486 869 1461.5 841.5 c 128,-1,70
 1437 814 1437 814 1407.5 795 c 128,-1,71
 1378 776 1378 776 1348 776 c 2,72,-1
 1343 776 l 1,73,-1
 1296 762 l 1,74,75
 1295 757 1295 757 1299 754 c 128,-1,76
 1303 751 1303 751 1308.5 749 c 128,-1,77
 1314 747 1314 747 1321 746 c 128,-1,78
 1328 745 1328 745 1333 745 c 2,79,-1
 1343 745 l 1,80,81
 1400 736 1400 736 1451 713 c 128,-1,82
 1502 690 1502 690 1540.5 650.5 c 128,-1,83
 1579 611 1579 611 1601.5 553 c 128,-1,84
 1624 495 1624 495 1624 416 c 0,85,86
 1624 396 1624 396 1621 377.5 c 128,-1,87
 1618 359 1618 359 1618 340 c 2,88,-1
 1618 330 l 1,89,-1
 1589 231 l 2,90,91
 1586 219 1586 219 1582.5 216.5 c 128,-1,92
 1579 214 1579 214 1573 205 c 0,93,94
 1526 133 1526 133 1453.5 82 c 128,-1,95
 1381 31 1381 31 1296 14 c 2,96,-1
 1180 -8 l 1,97,-1
 1169 -8 l 2,98,99
 1143 -8 1143 -8 1117.5 -12 c 128,-1,100
 1092 -16 1092 -16 1067 -16 c 0,101,102
 1032 -16 1032 -16 1000 -13 c 128,-1,103
 968 -10 968 -10 928 -10 c 0,104,105
 926 -10 926 -10 918.5 -11 c 128,-1,106
 911 -12 911 -12 909 -12 c 2,107,-1
 584 -12 l 1,108,109
 550 -15 550 -15 524.5 -15.5 c 128,-1,110
 499 -16 499 -16 465 -16 c 256,111,112
 431 -16 431 -16 398.5 -14 c 128,-1,113
 366 -12 366 -12 334 -12 c 1,114,115
 333 -13 333 -13 328.5 -13.5 c 128,-1,116
 324 -14 324 -14 319 -14 c 128,-1,117
 314 -14 314 -14 309 -14.5 c 128,-1,118
 304 -15 304 -15 303 -16 c 1,119,-1
 70 -16 l 1,120,-1
 70 188 l 2,0,1
793 340 m 1,121,-1
 930 340 l 2,122,123
 960 340 960 340 978 352.5 c 128,-1,124
 996 365 996 365 1006 384 c 128,-1,125
 1016 403 1016 403 1019 425.5 c 128,-1,126
 1022 448 1022 448 1022 467 c 0,127,128
 1022 539 1022 539 986.5 573.5 c 128,-1,129
 951 608 951 608 895 608 c 2,130,-1
 788 608 l 1,131,-1
 788 485 l 2,132,133
 788 483 788 483 789.5 481 c 128,-1,134
 791 479 791 479 791 477 c 256,135,136
 791 475 791 475 789.5 473 c 128,-1,137
 788 471 788 471 788 469 c 2,138,-1
 788 346 l 1,139,-1
 793 340 l 1,121,-1
563 821 m 2,140,141
 561 821 561 821 561 819 c 1,142,-1
 563 819 l 1,143,-1
 565 819 l 1,144,145
 565 820 565 820 564 821 c 1,146,-1
 563 821 l 2,140,141
737 1032 m 0,147,148
 737 996 737 996 737.5 970.5 c 128,-1,149
 738 945 738 945 738 926.5 c 128,-1,150
 738 908 738 908 738.5 895 c 128,-1,151
 739 882 739 882 739 870 c 1,152,-1
 743 868 l 1,153,154
 750 867 750 867 757 867 c 1,155,156
 762 866 762 866 768 866 c 128,-1,157
 774 866 774 866 778 866 c 0,158,159
 818 866 818 866 853 869 c 128,-1,160
 888 872 888 872 914.5 885 c 128,-1,161
 941 898 941 898 956 924.5 c 128,-1,162
 971 951 971 951 971 997 c 0,163,164
 971 1033 971 1033 960.5 1057.5 c 128,-1,165
 950 1082 950 1082 931 1097 c 128,-1,166
 912 1112 912 1112 885 1118.5 c 128,-1,167
 858 1125 858 1125 825 1126 c 0,168,169
 820 1126 820 1126 808.5 1125.5 c 128,-1,170
 797 1125 797 1125 784 1124.5 c 128,-1,171
 771 1124 771 1124 759.5 1123.5 c 128,-1,172
 748 1123 748 1123 743 1122 c 1,173,174
 740 1120 740 1120 738.5 1109.5 c 128,-1,175
 737 1099 737 1099 737 1085 c 128,-1,176
 737 1071 737 1071 737 1056 c 128,-1,177
 737 1041 737 1041 737 1032 c 0,147,148
1468 956 m 1,178,-1
 1470 956 l 1,179,-1
 1468 958 l 1,180,-1
 1468 956 l 1,178,-1
EndSplineSet
EndChar

StartChar: r
Encoding: 114 114 31
Width: 1681
GlyphClass: 2
Flags: W
LayerCount: 2
Fore
SplineSet
55 -8 m 0,0,1
 55 -6 55 -6 54.5 0 c 128,-1,2
 54 6 54 6 54 12.5 c 128,-1,3
 54 19 54 19 53.5 25.5 c 128,-1,4
 53 32 53 32 53 35 c 0,5,6
 53 37 53 37 54 41 c 128,-1,7
 55 45 55 45 55 47 c 2,8,-1
 55 293 l 1,9,10
 57 298 57 298 57 309 c 128,-1,11
 57 320 57 320 59 324 c 1,12,13
 59 347 59 347 57 369 c 128,-1,14
 55 391 55 391 55 414 c 0,15,16
 55 425 55 425 55 438 c 128,-1,17
 55 451 55 451 55 462 c 128,-1,18
 55 473 55 473 56.5 480 c 128,-1,19
 58 487 58 487 61 487 c 2,20,-1
 172 500 l 1,21,22
 182 503 182 503 184 510 c 2,23,-1
 360 1092 l 2,24,25
 362 1097 362 1097 362.5 1102 c 128,-1,26
 363 1107 363 1107 367 1110 c 1,27,-1
 420 1292 l 1,28,-1
 471 1454 l 2,29,30
 472 1456 472 1456 484.5 1457.5 c 128,-1,31
 497 1459 497 1459 513 1460 c 128,-1,32
 529 1461 529 1461 545.5 1461.5 c 128,-1,33
 562 1462 562 1462 573 1462 c 0,34,35
 599 1462 599 1462 625.5 1460 c 128,-1,36
 652 1458 652 1458 678 1458 c 1,37,38
 685 1459 685 1459 691 1460 c 0,39,40
 696 1461 696 1461 700.5 1461.5 c 128,-1,41
 705 1462 705 1462 707 1462 c 0,42,43
 724 1462 724 1462 742.5 1460.5 c 128,-1,44
 761 1459 761 1459 778 1456 c 1,45,-1
 1186 1456 l 2,46,47
 1192 1456 1192 1456 1195 1448.5 c 128,-1,48
 1198 1441 1198 1441 1198 1438 c 2,49,-1
 1225 1358 l 2,50,51
 1225 1359 1225 1359 1227 1352.5 c 128,-1,52
 1229 1346 1229 1346 1232 1336.5 c 128,-1,53
 1235 1327 1235 1327 1238 1316 c 128,-1,54
 1241 1305 1241 1305 1243 1298 c 0,55,56
 1243 1296 1243 1296 1242 1295 c 128,-1,57
 1241 1294 1241 1294 1241 1292 c 0,58,59
 1241 1285 1241 1285 1247 1282 c 1,60,-1
 1337 1006 l 1,61,-1
 1384 856 l 1,62,-1
 1391 846 l 1,63,64
 1396 822 1396 822 1405.5 793.5 c 128,-1,65
 1415 765 1415 765 1424 739 c 128,-1,66
 1433 713 1433 713 1439.5 692.5 c 128,-1,67
 1446 672 1446 672 1446 664 c 1,68,-1
 1501 500 l 1,69,-1
 1616 489 l 2,70,71
 1626 489 1626 489 1626 479 c 2,72,-1
 1626 205 l 1,73,74
 1624 203 1624 203 1624 199 c 128,-1,75
 1624 195 1624 195 1624 193 c 0,76,77
 1624 189 1624 189 1624 182.5 c 128,-1,78
 1624 176 1624 176 1626 174 c 1,79,-1
 1626 10 l 2,80,81
 1626 -2 1626 -2 1615 -6 c 128,-1,82
 1604 -10 1604 -10 1591 -10 c 0,83,84
 1573 -10 1573 -10 1561.5 -8 c 128,-1,85
 1550 -6 1550 -6 1542 -6 c 0,86,87
 1481 -6 1481 -6 1419 -7 c 128,-1,88
 1357 -8 1357 -8 1297.5 -9 c 128,-1,89
 1238 -10 1238 -10 1183 -11 c 128,-1,90
 1128 -12 1128 -12 1081 -12 c 0,91,92
 1067 -12 1067 -12 1061.5 -5 c 128,-1,93
 1056 2 1056 2 1053 14 c 2,94,-1
 1028 106 l 1,95,-1
 1012 170 l 1,96,-1
 1012 184 l 1,97,98
 1003 185 1003 185 981.5 185.5 c 128,-1,99
 960 186 960 186 937 186.5 c 128,-1,100
 914 187 914 187 895 188.5 c 128,-1,101
 876 190 876 190 872 193 c 1,102,-1
 668 193 l 1,103,-1
 659 184 l 1,104,-1
 602 -4 l 1,105,-1
 598 -8 l 1,106,107
 465 -8 465 -8 334 -11 c 128,-1,108
 203 -14 203 -14 70 -14 c 0,109,110
 67 -14 67 -14 62 -13.5 c 128,-1,111
 57 -13 57 -13 55 -8 c 0,0,1
1587 137 m 2,112,113
 1586 137 1586 137 1585 136 c 1,114,-1
 1585 135 l 1,115,-1
 1585 133 l 1,116,117
 1587 133 1587 133 1589 135 c 1,118,-1
 1587 137 l 2,112,113
1169 498 m 1,119,-1
 1174 498 l 1,120,-1
 1169 500 l 1,121,-1
 1169 498 l 1,119,-1
733 561 m 0,122,123
 742 561 742 561 762 560.5 c 128,-1,124
 782 560 782 560 805 560 c 128,-1,125
 828 560 828 560 848 559.5 c 128,-1,126
 868 559 868 559 877 559 c 1,127,128
 879 560 879 560 889.5 559 c 128,-1,129
 900 558 900 558 911.5 558 c 128,-1,130
 923 558 923 558 932.5 558.5 c 128,-1,131
 942 559 942 559 942 563 c 0,132,133
 942 569 942 569 940.5 580.5 c 128,-1,134
 939 592 939 592 936 605.5 c 128,-1,135
 933 619 933 619 929.5 632 c 128,-1,136
 926 645 926 645 922 653 c 1,137,-1
 881 797 l 1,138,-1
 854 897 l 1,139,140
 852 900 852 900 849.5 910 c 128,-1,141
 847 920 847 920 843.5 930.5 c 128,-1,142
 840 941 840 941 836 949.5 c 128,-1,143
 832 958 832 958 829 958 c 0,144,145
 825 958 825 958 825 956 c 2,146,-1
 752 680 l 2,147,148
 752 681 752 681 747 665 c 128,-1,149
 742 649 742 649 736.5 628.5 c 128,-1,150
 731 608 731 608 726 590 c 128,-1,151
 721 572 721 572 721 569 c 1,152,153
 719 564 719 564 725 562.5 c 128,-1,154
 731 561 731 561 733 561 c 0,122,123
EndSplineSet
EndChar

StartChar: t
Encoding: 116 116 32
Width: 1454
GlyphClass: 2
Flags: W
LayerCount: 2
Fore
SplineSet
856 2 m 1,0,-1
 850 -2 l 1,1,-1
 721 -2 l 1,2,3
 719 0 719 0 716 1 c 128,-1,4
 713 2 713 2 711 2 c 256,5,6
 709 2 709 2 697.5 0 c 128,-1,7
 686 -2 686 -2 684 -2 c 0,8,9
 606 -2 606 -2 528.5 2 c 128,-1,10
 451 6 451 6 373 6 c 0,11,12
 369 6 369 6 361 5 c 128,-1,13
 353 4 353 4 344 2.5 c 128,-1,14
 335 1 335 1 326 0 c 128,-1,15
 317 -1 317 -1 311 -2 c 1,16,-1
 84 -2 l 2,17,18
 73 -2 73 -2 71.5 6.5 c 128,-1,19
 70 15 70 15 70 23 c 0,20,21
 70 55 70 55 68 95 c 128,-1,22
 66 135 66 135 74 170 c 1,23,24
 74 176 74 176 80 177 c 128,-1,25
 86 178 86 178 88 184 c 1,26,27
 79 193 79 193 75 204.5 c 128,-1,28
 71 216 71 216 70 228 c 128,-1,29
 69 240 69 240 69.5 252.5 c 128,-1,30
 70 265 70 265 70 276 c 0,31,32
 70 279 70 279 70.5 297.5 c 128,-1,33
 71 316 71 316 71.5 338 c 128,-1,34
 72 360 72 360 72.5 377.5 c 128,-1,35
 73 395 73 395 74 395 c 2,36,-1
 186 410 l 1,37,-1
 186 1047 l 2,38,39
 186 1054 186 1054 168 1054.5 c 128,-1,40
 150 1055 150 1055 128 1055.5 c 128,-1,41
 106 1056 106 1056 88 1060 c 128,-1,42
 70 1064 70 1064 70 1077 c 2,43,-1
 70 1274 l 2,44,45
 70 1277 70 1277 69 1288 c 128,-1,46
 68 1299 68 1299 68 1303 c 1,47,48
 66 1303 66 1303 68 1305.5 c 128,-1,49
 70 1308 70 1308 70 1319 c 2,50,-1
 70 1458 l 1,51,-1
 84 1462 l 1,52,-1
 168 1462 l 2,53,54
 252 1462 252 1462 333.5 1463 c 128,-1,55
 415 1464 415 1464 500 1464 c 0,56,57
 556 1464 556 1464 599 1463 c 128,-1,58
 642 1462 642 1462 692 1462 c 2,59,-1
 1294 1462 l 2,60,61
 1299 1462 1299 1462 1301.5 1463 c 128,-1,62
 1304 1464 1304 1464 1309 1464 c 0,63,64
 1335 1464 1335 1464 1335 1430 c 0,65,66
 1335 1422 1335 1422 1334 1413.5 c 128,-1,67
 1333 1405 1333 1405 1332 1397 c 0,68,69
 1330 1388 1330 1388 1329 1380 c 0,70,71
 1329 1378 1329 1378 1331 1376 c 128,-1,72
 1333 1374 1333 1374 1335 1372 c 1,73,74
 1335 1316 1335 1316 1333 1272.5 c 128,-1,75
 1331 1229 1331 1229 1331 1180 c 0,76,77
 1331 1139 1331 1139 1333 1100.5 c 128,-1,78
 1335 1062 1335 1062 1335 1022 c 0,79,80
 1335 1017 1335 1017 1335 1005.5 c 128,-1,81
 1335 994 1335 994 1334.5 982 c 128,-1,82
 1334 970 1334 970 1332.5 961 c 128,-1,83
 1331 952 1331 952 1327 952 c 1,84,85
 1299 962 1299 962 1267.5 970 c 128,-1,86
 1236 978 1236 978 1208 989 c 1,87,-1
 1038 1030 l 2,88,89
 1035 1031 1035 1031 1028.5 1031 c 128,-1,90
 1022 1031 1022 1031 1015.5 1031 c 128,-1,91
 1009 1031 1009 1031 1003 1032 c 128,-1,92
 997 1033 997 1033 995 1036 c 1,93,-1
 877 1049 l 1,94,-1
 860 1049 l 2,95,96
 835 1049 835 1049 811 1051 c 128,-1,97
 787 1053 787 1053 764 1053 c 0,98,99
 759 1053 759 1053 750 1052 c 128,-1,100
 741 1051 741 1051 739 1051 c 1,101,-1
 737 1049 l 1,102,103
 736 1039 736 1039 736 1029 c 1,104,105
 735 1021 735 1021 735 1011.5 c 128,-1,106
 735 1002 735 1002 735 997 c 0,107,108
 735 986 735 986 733.5 962.5 c 128,-1,109
 732 939 732 939 732.5 915.5 c 128,-1,110
 733 892 733 892 738.5 874.5 c 128,-1,111
 744 857 744 857 758 858 c 1,112,-1
 997 911 l 2,113,114
 1009 914 1009 914 1024 916 c 128,-1,115
 1039 918 1039 918 1052.5 920 c 128,-1,116
 1066 922 1066 922 1077 923 c 128,-1,117
 1088 924 1088 924 1092 924 c 1,118,-1
 1094 920 l 1,119,120
 1094 914 1094 914 1095 909 c 0,121,122
 1095 904 1095 904 1095.5 900 c 128,-1,123
 1096 896 1096 896 1096 893 c 0,124,125
 1096 891 1096 891 1095.5 878 c 128,-1,126
 1095 865 1095 865 1095 848.5 c 128,-1,127
 1095 832 1095 832 1094.5 817 c 128,-1,128
 1094 802 1094 802 1094 797 c 0,129,130
 1094 795 1094 795 1094.5 788.5 c 128,-1,131
 1095 782 1095 782 1095 773.5 c 128,-1,132
 1095 765 1095 765 1095.5 758 c 128,-1,133
 1096 751 1096 751 1096 750 c 0,134,135
 1096 743 1096 743 1096.5 726 c 128,-1,136
 1097 709 1097 709 1097.5 687.5 c 128,-1,137
 1098 666 1098 666 1098 642.5 c 128,-1,138
 1098 619 1098 619 1097 599.5 c 128,-1,139
 1096 580 1096 580 1093.5 566.5 c 128,-1,140
 1091 553 1091 553 1087 551 c 1,141,142
 1073 549 1073 549 1048 552.5 c 128,-1,143
 1023 556 1023 556 998.5 561 c 128,-1,144
 974 566 974 566 955.5 571 c 128,-1,145
 937 576 937 576 936 578 c 1,146,-1
 805 604 l 1,147,148
 796 604 796 604 791 603 c 128,-1,149
 786 602 786 602 786 594 c 2,150,-1
 786 432 l 1,151,-1
 793 424 l 1,152,153
 817 424 817 424 847.5 426 c 128,-1,154
 878 428 878 428 909 428 c 1,155,-1
 1077 446 l 1,156,157
 1105 451 1105 451 1132 456 c 0,158,159
 1155 461 1155 461 1180 465.5 c 128,-1,160
 1205 470 1205 470 1225 475 c 0,161,162
 1243 479 1243 479 1266.5 487.5 c 128,-1,163
 1290 496 1290 496 1313 505 c 128,-1,164
 1336 514 1336 514 1355 520.5 c 128,-1,165
 1374 527 1374 527 1382 526 c 1,166,-1
 1386 512 l 1,167,168
 1386 480 1386 480 1385.5 450.5 c 128,-1,169
 1385 421 1385 421 1382 389 c 1,170,-1
 1382 10 l 2,171,172
 1382 1 1382 1 1369 -0.5 c 128,-1,173
 1356 -2 1356 -2 1350 -2 c 0,174,175
 1340 -2 1340 -2 1332.5 0 c 128,-1,176
 1325 2 1325 2 1317 2 c 0,177,178
 1306 2 1306 2 1303.5 -1 c 128,-1,179
 1301 -4 1301 -4 1294 -4 c 2,180,-1
 938 -4 l 2,181,182
 929 -4 929 -4 913.5 -2.5 c 128,-1,183
 898 -1 898 -1 895 2 c 1,184,-1
 856 2 l 1,0,-1
287 252 m 1,185,-1
 289 252 l 1,186,187
 289 253 289 253 288 254 c 1,188,-1
 287 254 l 1,189,-1
 287 252 l 1,185,-1
1061 256 m 1,190,191
 1065 252 1065 252 1067 252 c 1,192,-1
 1067 256 l 1,193,-1
 1061 256 l 1,190,191
1264 279 m 1,194,195
 1262 279 1262 279 1262 277 c 2,196,-1
 1262 276 l 1,197,-1
 1266 276 l 1,198,-1
 1264 279 l 1,194,195
1337 319 m 1,199,-1
 1339 319 l 1,200,-1
 1337 324 l 1,201,-1
 1337 319 l 1,199,-1
690 811 m 1,202,203
 690 803 690 803 696 803 c 0,204,205
 699 803 699 803 699.5 806 c 128,-1,206
 700 809 700 809 700 811 c 1,207,-1
 690 811 l 1,202,203
963 1059 m 2,208,209
 962 1059 962 1059 961 1058 c 1,210,-1
 961 1057 l 2,211,212
 961 1055 961 1055 963 1055 c 2,213,-1
 964 1055 l 1,214,215
 964 1055 964 1055 965 1057 c 1,216,-1
 963 1059 l 2,208,209
961 1061 m 1,217,218
 958 1061 958 1061 958 1059 c 1,219,-1
 961 1059 l 1,220,-1
 961 1061 l 1,217,218
918 1128 m 1,221,222
 917 1128 917 1128 916 1127 c 1,223,-1
 915 1127 l 1,224,-1
 915 1126 l 2,225,226
 915 1124 915 1124 918 1124 c 1,227,-1
 918 1128 l 1,221,222
512 1419 m 2,228,229
 510 1419 510 1419 510 1417 c 1,230,-1
 512 1417 l 1,231,-1
 514 1417 l 1,232,233
 514 1418 514 1418 513 1419 c 1,234,-1
 512 1419 l 2,228,229
EndSplineSet
EndChar

StartChar: u
Encoding: 117 117 33
Width: 1686
GlyphClass: 2
Flags: W
LayerCount: 2
Fore
SplineSet
872 344 m 1,0,-1
 793 518 l 1,1,2
 793 521 793 521 788 528 c 128,-1,3
 783 535 783 535 778 535 c 0,4,5
 772 535 772 535 771 526.5 c 128,-1,6
 770 518 770 518 770 516 c 0,7,8
 775 405 775 405 776.5 295 c 128,-1,9
 778 185 778 185 778 74 c 0,10,11
 778 68 778 68 776 47 c 128,-1,12
 774 26 774 26 774 6 c 1,13,-1
 772 2 l 1,14,-1
 657 2 l 2,15,16
 654 2 654 2 647.5 3 c 128,-1,17
 641 4 641 4 639 4 c 0,18,19
 526 4 526 4 413.5 1 c 128,-1,20
 301 -2 301 -2 188 -2 c 0,21,22
 183 -2 183 -2 169 -1.5 c 128,-1,23
 155 -1 155 -1 139 -1 c 128,-1,24
 123 -1 123 -1 108.5 -0.5 c 128,-1,25
 94 0 94 0 88 0 c 1,26,27
 86 -2 86 -2 82 -2 c 0,28,29
 77 -2 77 -2 75 2.5 c 128,-1,30
 73 7 73 7 71.5 13.5 c 128,-1,31
 70 20 70 20 70 26.5 c 128,-1,32
 70 33 70 33 70 37 c 0,33,34
 70 42 70 42 71.5 48 c 128,-1,35
 73 54 73 54 76 57 c 1,36,37
 76 108 76 108 74 155.5 c 128,-1,38
 72 203 72 203 70 254 c 1,39,40
 71 255 71 255 71.5 258 c 128,-1,41
 72 261 72 261 73 264 c 0,42,43
 74 268 74 268 74 272 c 1,44,45
 73 271 73 271 72.5 283.5 c 128,-1,46
 72 296 72 296 71.5 311.5 c 128,-1,47
 71 327 71 327 70.5 341.5 c 128,-1,48
 70 356 70 356 70 360 c 0,49,50
 71 365 71 365 71 371.5 c 128,-1,51
 71 378 71 378 71.5 383.5 c 128,-1,52
 72 389 72 389 74 393 c 128,-1,53
 76 397 76 397 82 397 c 2,54,-1
 174 406 l 1,55,56
 182 408 182 408 184 415.5 c 128,-1,57
 186 423 186 423 186 428 c 2,58,-1
 186 655 l 1,59,60
 184 658 184 658 183 669.5 c 128,-1,61
 182 681 182 681 182 684 c 0,62,63
 182 685 182 685 182 692 c 128,-1,64
 182 699 182 699 182.5 708 c 128,-1,65
 183 717 183 717 183.5 725 c 128,-1,66
 184 733 184 733 186 735 c 1,67,68
 186 748 186 748 184 762.5 c 128,-1,69
 182 777 182 777 182 793 c 0,70,71
 182 847 182 847 184 907.5 c 128,-1,72
 186 968 186 968 186 1018 c 1,73,-1
 182 1047 l 2,74,75
 181 1054 181 1054 165 1056 c 128,-1,76
 149 1058 149 1058 129.5 1058.5 c 128,-1,77
 110 1059 110 1059 93 1060 c 128,-1,78
 76 1061 76 1061 74 1067 c 0,79,80
 73 1071 73 1071 72.5 1082.5 c 128,-1,81
 72 1094 72 1094 72 1106 c 128,-1,82
 72 1118 72 1118 71.5 1128.5 c 128,-1,83
 71 1139 71 1139 70 1143 c 1,84,85
 70 1168 70 1168 72 1194 c 128,-1,86
 74 1220 74 1220 74 1245 c 1,87,88
 73 1254 73 1254 72.5 1275 c 128,-1,89
 72 1296 72 1296 71.5 1320 c 128,-1,90
 71 1344 71 1344 70.5 1365 c 128,-1,91
 70 1386 70 1386 70 1395 c 2,92,-1
 70 1454 l 1,93,-1
 74 1462 l 1,94,95
 86 1462 86 1462 98.5 1461 c 128,-1,96
 111 1460 111 1460 125 1460 c 0,97,98
 167 1460 167 1460 206 1463 c 128,-1,99
 245 1466 245 1466 287 1466 c 0,100,101
 289 1466 289 1466 299 1464 c 128,-1,102
 309 1462 309 1462 311 1462 c 0,103,104
 312 1462 312 1462 322 1462.5 c 128,-1,105
 332 1463 332 1463 345.5 1464 c 128,-1,106
 359 1465 359 1465 373.5 1465.5 c 128,-1,107
 388 1466 388 1466 397 1466 c 2,108,-1
 821 1466 l 1,109,-1
 1040 1464 l 2,110,111
 1043 1464 1043 1464 1056.5 1465 c 128,-1,112
 1070 1466 1070 1466 1075 1466 c 0,113,114
 1103 1466 1103 1466 1133 1462 c 128,-1,115
 1163 1458 1163 1458 1192 1458 c 2,116,-1
 1204 1458 l 1,117,-1
 1311 1423 l 2,118,119
 1314 1423 1314 1423 1328 1415.5 c 128,-1,120
 1342 1408 1342 1408 1358 1398.5 c 128,-1,121
 1374 1389 1374 1389 1388 1381.5 c 128,-1,122
 1402 1374 1402 1374 1405 1374 c 1,123,-1
 1448 1335 l 1,124,125
 1453 1335 1453 1335 1458.5 1326 c 128,-1,126
 1464 1317 1464 1317 1466 1315 c 0,127,128
 1521 1250 1521 1250 1545 1182.5 c 128,-1,129
 1569 1115 1569 1115 1569 1030 c 0,130,131
 1569 992 1569 992 1562.5 958 c 128,-1,132
 1556 924 1556 924 1546 887 c 1,133,-1
 1546 881 l 2,134,135
 1546 879 1546 879 1543.5 872.5 c 128,-1,136
 1541 866 1541 866 1537 857.5 c 128,-1,137
 1533 849 1533 849 1529 840.5 c 128,-1,138
 1525 832 1525 832 1522 827 c 0,139,140
 1502 793 1502 793 1477 766.5 c 128,-1,141
 1452 740 1452 740 1423 719 c 128,-1,142
 1394 698 1394 698 1361 681 c 128,-1,143
 1328 664 1328 664 1294 649 c 0,144,145
 1288 646 1288 646 1288 641 c 0,146,147
 1288 638 1288 638 1290.5 635 c 128,-1,148
 1293 632 1293 632 1296 629 c 2,149,-1
 1370 557 l 1,150,-1
 1462 358 l 2,151,152
 1463 357 1463 357 1465 353 c 0,153,154
 1466 351 1466 351 1466 350 c 0,155,156
 1488 304 1488 304 1509 259 c 128,-1,157
 1530 214 1530 214 1548 168 c 1,158,159
 1556 159 1556 159 1569 137.5 c 128,-1,160
 1582 116 1582 116 1594 90.5 c 128,-1,161
 1606 65 1606 65 1615 41 c 128,-1,162
 1624 17 1624 17 1624 4 c 1,163,164
 1619 -2 1619 -2 1598.5 -4.5 c 128,-1,165
 1578 -7 1578 -7 1551 -7 c 128,-1,166
 1524 -7 1524 -7 1496 -6.5 c 128,-1,167
 1468 -6 1468 -6 1450 -6 c 0,168,169
 1446 -6 1446 -6 1440.5 -6 c 128,-1,170
 1435 -6 1435 -6 1429.5 -6 c 128,-1,171
 1424 -6 1424 -6 1420.5 -5 c 128,-1,172
 1417 -4 1417 -4 1417 -2 c 0,173,174
 1417 2 1417 2 1421 4.5 c 128,-1,175
 1425 7 1425 7 1429.5 9.5 c 128,-1,176
 1434 12 1434 12 1438 14.5 c 128,-1,177
 1442 17 1442 17 1442 23 c 256,178,179
 1442 29 1442 29 1430.5 34 c 128,-1,180
 1419 39 1419 39 1413 39 c 0,181,182
 1404 39 1404 39 1398 33 c 128,-1,183
 1392 27 1392 27 1385.5 19.5 c 128,-1,184
 1379 12 1379 12 1370 6 c 128,-1,185
 1361 0 1361 0 1346 0 c 1,186,187
 1339 3 1339 3 1334 3.5 c 128,-1,188
 1329 4 1329 4 1323 4 c 0,189,190
 1318 4 1318 4 1313.5 4 c 128,-1,191
 1309 4 1309 4 1309 -2 c 0,192,193
 1309 -4 1309 -4 1310 -5 c 0,194,195
 1310 -6 1310 -6 1311 -6 c 1,196,197
 1294 -6 1294 -6 1282.5 -8 c 128,-1,198
 1271 -10 1271 -10 1245 -10 c 0,199,200
 1233 -10 1233 -10 1223 -10 c 128,-1,201
 1213 -10 1213 -10 1208 -8 c 1,202,203
 1203 -11 1203 -11 1198.5 -11.5 c 128,-1,204
 1194 -12 1194 -12 1188 -12 c 2,205,-1
 1167 -12 l 2,206,207
 1164 -12 1164 -12 1160 -12 c 128,-1,208
 1156 -12 1156 -12 1153 -14 c 1,209,-1
 1040 -14 l 2,210,211
 1037 -14 1037 -14 1033.5 -11 c 128,-1,212
 1030 -8 1030 -8 1030 -6 c 2,213,-1
 872 336 l 1,214,-1
 872 344 l 1,0,-1
471 14 m 1,215,216
 470 13 470 13 471 12 c 1,217,218
 471 10 471 10 475 10 c 0,219,220
 481 10 481 10 481 14 c 0,221,222
 481 20 481 20 475 20 c 0,223,224
 471 20 471 20 471 14 c 1,215,216
739 104 m 1,225,226
 735 104 735 104 735 100 c 1,227,-1
 739 100 l 1,228,-1
 739 104 l 1,225,226
1415 170 m 1,229,230
 1423 167 1423 167 1427.5 178 c 128,-1,231
 1432 189 1432 189 1432 197 c 0,232,233
 1432 202 1432 202 1429 205.5 c 128,-1,234
 1426 209 1426 209 1421 209 c 256,235,236
 1416 209 1416 209 1407.5 205 c 128,-1,237
 1399 201 1399 201 1397 201 c 1,238,-1
 1397 188 l 1,239,-1
 1415 170 l 1,229,230
1434 268 m 2,240,241
 1432 268 1432 268 1432 266 c 1,242,-1
 1434 266 l 1,243,-1
 1436 266 l 1,244,245
 1436 267 1436 267 1435 268 c 1,246,-1
 1434 268 l 2,240,241
1417 283 m 2,247,248
 1415 283 1415 283 1415 281 c 1,249,-1
 1417 281 l 1,250,-1
 1419 281 l 1,251,252
 1419 282 1419 282 1418 283 c 1,253,-1
 1417 283 l 2,247,248
1286 766 m 1,254,-1
 1292 766 l 1,255,-1
 1292 770 l 1,256,-1
 1286 770 l 1,257,-1
 1286 766 l 1,254,-1
305 819 m 2,258,-1
 309 766 l 1,259,-1
 309 811 l 1,260,261
 305 815 305 815 305 819 c 2,258,-1
766 868 m 2,262,263
 768 864 768 864 770 864 c 2,264,-1
 879 864 l 2,265,266
 908 864 908 864 929 874.5 c 128,-1,267
 950 885 950 885 964 902.5 c 128,-1,268
 978 920 978 920 984.5 943.5 c 128,-1,269
 991 967 991 967 991 993 c 0,270,271
 991 1044 991 1044 974 1071 c 128,-1,272
 957 1098 957 1098 927.5 1109 c 128,-1,273
 898 1120 898 1120 857.5 1121 c 128,-1,274
 817 1122 817 1122 770 1122 c 1,275,-1
 766 1118 l 1,276,277
 766 1104 766 1104 765 1089.5 c 128,-1,278
 764 1075 764 1075 764 1057 c 0,279,280
 764 1055 764 1055 764.5 1045.5 c 128,-1,281
 765 1036 765 1036 765 1025 c 128,-1,282
 765 1014 765 1014 765.5 1004.5 c 128,-1,283
 766 995 766 995 766 993 c 0,284,285
 766 962 766 962 765 934.5 c 128,-1,286
 764 907 764 907 764 872 c 1,287,-1
 766 868 l 2,262,263
1319 893 m 1,288,289
 1315 893 1315 893 1315 889 c 1,290,-1
 1323 889 l 1,291,-1
 1319 893 l 1,288,289
1382 1293 m 1,292,293
 1382 1293 1382 1293 1380 1294 c 1,294,-1
 1380 1292 l 1,295,-1
 1382 1292 l 1,296,-1
 1382 1293 l 1,292,293
827 1436 m 0,297,298
 827 1429 827 1429 837 1426 c 128,-1,299
 847 1423 847 1423 852 1421 c 1,300,-1
 854 1425 l 1,301,302
 854 1433 854 1433 846.5 1436.5 c 128,-1,303
 839 1440 839 1440 831 1440 c 0,304,305
 827 1440 827 1440 827 1436 c 0,297,298
309 1432 m 1,306,307
 309 1430 309 1430 311 1430 c 2,308,-1
 313 1430 l 1,309,310
 313 1431 313 1431 312 1432 c 1,311,-1
 311 1432 l 1,312,-1
 309 1432 l 1,306,307
EndSplineSet
EndChar

StartChar: v
Encoding: 118 118 34
Width: 1493
GlyphClass: 2
Flags: W
LayerCount: 2
Fore
SplineSet
287 18 m 1,0,1
 251 34 251 34 209 37 c 1,2,-1
 96 72 l 2,3,4
 79 78 79 78 73.5 91 c 128,-1,5
 68 104 68 104 68 127 c 0,6,7
 68 135 68 135 68 150 c 128,-1,8
 68 165 68 165 74 174 c 1,9,-1
 74 190 l 2,10,11
 74 198 74 198 74.5 204.5 c 128,-1,12
 75 211 75 211 78 217 c 1,13,14
 81 211 81 211 84 211 c 1,15,16
 82 211 82 211 88 213.5 c 128,-1,17
 94 216 94 216 101 220.5 c 128,-1,18
 108 225 108 225 114.5 231 c 128,-1,19
 121 237 121 237 121 244 c 0,20,21
 121 248 121 248 114.5 247.5 c 128,-1,22
 108 247 108 247 100 248.5 c 128,-1,23
 92 250 92 250 85.5 256.5 c 128,-1,24
 79 263 79 263 80 281 c 2,25,-1
 96 453 l 1,26,-1
 113 461 l 1,27,28
 106 471 106 471 98 471 c 1,29,30
 96 496 96 496 97 516 c 0,31,32
 98 533 98 533 100 547 c 128,-1,33
 102 561 102 561 109 561 c 256,34,35
 116 561 116 561 122 558.5 c 128,-1,36
 128 556 128 556 138.5 550 c 128,-1,37
 149 544 149 544 166.5 534.5 c 128,-1,38
 184 525 184 525 213 510 c 0,39,40
 219 506 219 506 228.5 502.5 c 128,-1,41
 238 499 238 499 248 495.5 c 128,-1,42
 258 492 258 492 267 488 c 128,-1,43
 276 484 276 484 281 479 c 1,44,-1
 440 432 l 1,45,46
 447 432 447 432 448.5 431 c 128,-1,47
 450 430 450 430 455 428 c 1,48,49
 501 420 501 420 547 415 c 128,-1,50
 593 410 593 410 639 410 c 0,51,52
 661 410 661 410 686.5 411 c 128,-1,53
 712 412 712 412 733.5 419.5 c 128,-1,54
 755 427 755 427 769.5 443 c 128,-1,55
 784 459 784 459 784 489 c 1,56,57
 778 499 778 499 758 502.5 c 128,-1,58
 738 506 738 506 713.5 507.5 c 128,-1,59
 689 509 689 509 664 510.5 c 128,-1,60
 639 512 639 512 623 518 c 1,61,-1
 610 518 l 2,62,63
 596 518 596 518 592 522 c 1,64,65
 542 533 542 533 492.5 544 c 128,-1,66
 443 555 443 555 393 567 c 1,67,68
 385 573 385 573 372 579.5 c 128,-1,69
 359 586 359 586 344.5 591.5 c 128,-1,70
 330 597 330 597 317.5 601 c 128,-1,71
 305 605 305 605 299 606 c 1,72,-1
 213 662 l 2,73,74
 211 664 211 664 206 669 c 128,-1,75
 201 674 201 674 195 679.5 c 128,-1,76
 189 685 189 685 183.5 689.5 c 128,-1,77
 178 694 178 694 176 696 c 0,78,79
 159 711 159 711 142 735 c 128,-1,80
 125 759 125 759 111 784.5 c 128,-1,81
 97 810 97 810 88.5 833 c 128,-1,82
 80 856 80 856 80 868 c 2,83,-1
 80 874 l 1,84,-1
 63 975 l 1,85,-1
 74 1110 l 2,86,87
 74 1111 74 1111 77.5 1123.5 c 128,-1,88
 81 1136 81 1136 86 1151.5 c 128,-1,89
 91 1167 91 1167 96.5 1183 c 128,-1,90
 102 1199 102 1199 106 1208 c 0,91,92
 129 1267 129 1267 174.5 1314 c 128,-1,93
 220 1361 220 1361 272 1393 c 1,94,-1
 274 1397 l 1,95,96
 283 1401 283 1401 295.5 1406.5 c 128,-1,97
 308 1412 308 1412 322.5 1417.5 c 128,-1,98
 337 1423 337 1423 351 1428.5 c 128,-1,99
 365 1434 365 1434 377 1440 c 1,100,101
 381 1440 381 1440 395 1444.5 c 128,-1,102
 409 1449 409 1449 425 1455 c 128,-1,103
 441 1461 441 1461 454 1465.5 c 128,-1,104
 467 1470 467 1470 469 1470 c 2,105,-1
 473 1470 l 1,106,-1
 535 1487 l 1,107,108
 539 1487 539 1487 547.5 1488 c 128,-1,109
 556 1489 556 1489 565.5 1490 c 128,-1,110
 575 1491 575 1491 584 1492 c 128,-1,111
 593 1493 593 1493 600 1493 c 0,112,113
 609 1493 609 1493 630.5 1494 c 128,-1,114
 652 1495 652 1495 676 1496.5 c 128,-1,115
 700 1498 700 1498 721.5 1499 c 128,-1,116
 743 1500 743 1500 752 1501 c 1,117,-1
 760 1501 l 1,118,119
 765 1503 765 1503 781.5 1503 c 128,-1,120
 798 1503 798 1503 803 1503 c 0,121,122
 868 1503 868 1503 920.5 1494.5 c 128,-1,123
 973 1486 973 1486 999 1481 c 1,124,-1
 1010 1481 l 2,125,126
 1028 1481 1028 1481 1051 1477 c 128,-1,127
 1074 1473 1074 1473 1095 1468 c 128,-1,128
 1116 1463 1116 1463 1132 1456.5 c 128,-1,129
 1148 1450 1148 1450 1153 1446 c 1,130,131
 1155 1450 1155 1450 1159 1450 c 2,132,-1
 1231 1432 l 1,133,134
 1236 1428 1236 1428 1241 1426.5 c 128,-1,135
 1246 1425 1246 1425 1249 1425 c 1,136,-1
 1358 1384 l 1,137,138
 1364 1380 1364 1380 1370 1378.5 c 128,-1,139
 1376 1377 1376 1377 1380.5 1373 c 128,-1,140
 1385 1369 1385 1369 1388 1360 c 128,-1,141
 1391 1351 1391 1351 1391 1333 c 0,142,143
 1391 1255 1391 1255 1386.5 1177.5 c 128,-1,144
 1382 1100 1382 1100 1382 1022 c 2,145,-1
 1382 952 l 2,146,147
 1382 934 1382 934 1381.5 913.5 c 128,-1,148
 1381 893 1381 893 1372 879 c 1,149,150
 1366 879 1366 879 1348 891 c 128,-1,151
 1330 903 1330 903 1312 917 c 128,-1,152
 1294 931 1294 931 1281.5 940.5 c 128,-1,153
 1269 950 1269 950 1274 946 c 1,154,-1
 1092 1020 l 1,155,156
 1067 1026 1067 1026 1037.5 1034 c 128,-1,157
 1008 1042 1008 1042 971 1049 c 0,158,159
 968 1049 968 1049 966.5 1048 c 128,-1,160
 965 1047 965 1047 963 1047 c 256,161,162
 961 1047 961 1047 960 1048 c 128,-1,163
 959 1049 959 1049 952 1051 c 0,164,165
 950 1051 950 1051 932 1052 c 128,-1,166
 914 1053 914 1053 891.5 1054.5 c 128,-1,167
 869 1056 869 1056 849 1057 c 128,-1,168
 829 1058 829 1058 823 1059 c 1,169,170
 805 1059 805 1059 783.5 1055 c 128,-1,171
 762 1051 762 1051 745 1041.5 c 128,-1,172
 728 1032 728 1032 717 1015.5 c 128,-1,173
 706 999 706 999 709 975 c 1,174,-1
 881 950 l 1,175,-1
 887 950 l 2,176,177
 902 950 902 950 917.5 943 c 128,-1,178
 933 936 933 936 948 936 c 0,179,180
 951 936 951 936 953 937 c 128,-1,181
 955 938 955 938 958 938 c 0,182,183
 970 934 970 934 987.5 929 c 128,-1,184
 1005 924 1005 924 1021.5 919.5 c 128,-1,185
 1038 915 1038 915 1050 912 c 128,-1,186
 1062 909 1062 909 1061 909 c 2,187,-1
 1214 838 l 2,188,189
 1227 833 1227 833 1246 821 c 128,-1,190
 1265 809 1265 809 1284.5 794 c 128,-1,191
 1304 779 1304 779 1321.5 762.5 c 128,-1,192
 1339 746 1339 746 1350 731 c 0,193,194
 1387 680 1387 680 1408.5 616 c 128,-1,195
 1430 552 1430 552 1430 498 c 0,196,197
 1430 450 1430 450 1426.5 410.5 c 128,-1,198
 1423 371 1423 371 1414 335 c 128,-1,199
 1405 299 1405 299 1389.5 265.5 c 128,-1,200
 1374 232 1374 232 1350 197 c 0,201,202
 1347 192 1347 192 1340.5 190 c 128,-1,203
 1334 188 1334 188 1327.5 186 c 128,-1,204
 1321 184 1321 184 1316 180.5 c 128,-1,205
 1311 177 1311 177 1311 170 c 0,206,207
 1311 167 1311 167 1313 166 c 128,-1,208
 1315 165 1315 165 1315 162 c 0,209,210
 1315 161 1315 161 1314.5 160 c 128,-1,211
 1314 159 1314 159 1314 158 c 0,212,213
 1313 157 1313 157 1313 156 c 0,214,215
 1285 129 1285 129 1258.5 108 c 128,-1,216
 1232 87 1232 87 1203.5 70 c 128,-1,217
 1175 53 1175 53 1143.5 40 c 128,-1,218
 1112 27 1112 27 1075 16 c 1,219,220
 1070 16 1070 16 1068 19.5 c 128,-1,221
 1066 23 1066 23 1063 23 c 0,222,223
 1057 23 1057 23 1055 16.5 c 128,-1,224
 1053 10 1053 10 1047 8 c 0,225,226
 969 -13 969 -13 892.5 -20 c 128,-1,227
 816 -27 816 -27 735 -27 c 0,228,229
 723 -27 723 -27 712.5 -22.5 c 128,-1,230
 702 -18 702 -18 692 -18 c 0,231,232
 681 -18 681 -18 675 -22.5 c 128,-1,233
 669 -27 669 -27 659 -27 c 0,234,235
 630 -27 630 -27 601.5 -21.5 c 128,-1,236
 573 -16 573 -16 545 -16 c 2,237,-1
 530 -16 l 1,238,-1
 287 18 l 1,0,1
1149 166 m 0,239,240
 1149 160 1149 160 1153 160 c 256,241,242
 1157 160 1157 160 1157 166 c 0,243,244
 1157 170 1157 170 1153 170 c 256,245,246
 1149 170 1149 170 1149 166 c 0,239,240
1079 188 m 2,247,248
 1079 180 1079 180 1080.5 178 c 128,-1,249
 1082 176 1082 176 1090 176 c 0,250,251
 1096 176 1096 176 1101 179 c 128,-1,252
 1106 182 1106 182 1106 190 c 0,253,254
 1106 195 1106 195 1101.5 197 c 128,-1,255
 1097 199 1097 199 1092 199 c 0,256,257
 1090 199 1090 199 1087.5 199 c 128,-1,258
 1085 199 1085 199 1083 197 c 1,259,-1
 1081 199 l 1,260,261
 1079 199 1079 199 1079 193 c 2,262,-1
 1079 188 l 2,247,248
133 186 m 256,263,264
 133 181 133 181 134.5 180.5 c 128,-1,265
 136 180 136 180 141 180 c 256,266,267
 146 180 146 180 146.5 181 c 128,-1,268
 147 182 147 182 147 190 c 0,269,270
 147 193 147 193 143 193 c 0,271,272
 138 193 138 193 135.5 192 c 128,-1,273
 133 191 133 191 133 186 c 256,263,264
1186 250 m 0,274,275
 1186 244 1186 244 1187.5 243 c 128,-1,276
 1189 242 1189 242 1194 242 c 0,277,278
 1203 242 1203 242 1207.5 249.5 c 128,-1,279
 1212 257 1212 257 1212 266 c 1,280,281
 1204 266 1204 266 1195 263.5 c 128,-1,282
 1186 261 1186 261 1186 250 c 0,274,275
1374 401 m 2,283,284
 1374 393 1374 393 1378 393 c 0,285,286
 1383 393 1383 393 1387 395.5 c 128,-1,287
 1391 398 1391 398 1391 403 c 0,288,289
 1391 407 1391 407 1387 410.5 c 128,-1,290
 1383 414 1383 414 1378 414 c 0,291,292
 1375 414 1375 414 1374.5 412 c 128,-1,293
 1374 410 1374 410 1374 408 c 2,294,-1
 1374 401 l 2,283,284
391 420 m 0,295,296
 391 416 391 416 395 416 c 256,297,298
 399 416 399 416 399 420 c 0,299,300
 399 426 399 426 395 426 c 256,301,302
 391 426 391 426 391 420 c 0,295,296
1403 426 m 0,303,304
 1403 424 1403 424 1403.5 422 c 128,-1,305
 1404 420 1404 420 1407 420 c 0,306,307
 1413 420 1413 420 1419 429.5 c 128,-1,308
 1425 439 1425 439 1425 444 c 256,309,310
 1425 449 1425 449 1422.5 450 c 128,-1,311
 1420 451 1420 451 1417 451 c 0,312,313
 1408 451 1408 451 1405.5 442.5 c 128,-1,314
 1403 434 1403 434 1403 426 c 0,303,304
236 727 m 0,315,316
 236 721 236 721 240 721 c 0,317,318
 246 721 246 721 246 725 c 1,319,320
 246 723 246 723 245.5 727 c 128,-1,321
 245 731 245 731 240 731 c 0,322,323
 236 731 236 731 236 727 c 0,315,316
326 729 m 2,324,325
 317 729 317 729 317 719 c 1,326,327
 321 719 321 719 323.5 722.5 c 128,-1,328
 326 726 326 726 328 729 c 1,329,-1
 326 729 l 2,324,325
717 815 m 0,330,331
 717 807 717 807 729.5 804 c 128,-1,332
 742 801 742 801 750 801 c 0,333,334
 763 801 763 801 770 813 c 128,-1,335
 777 825 777 825 780 838.5 c 128,-1,336
 783 852 783 852 783.5 862.5 c 128,-1,337
 784 873 784 873 784 870 c 1,338,339
 784 881 784 881 781.5 887 c 128,-1,340
 779 893 779 893 770 893 c 1,341,342
 768 886 768 886 763.5 880.5 c 128,-1,343
 759 875 759 875 754 871 c 128,-1,344
 749 867 749 867 745 864 c 128,-1,345
 741 861 741 861 741 860 c 2,346,-1
 741 836 l 2,347,348
 741 833 741 833 737 831 c 128,-1,349
 733 829 733 829 728.5 827.5 c 128,-1,350
 724 826 724 826 720.5 823 c 128,-1,351
 717 820 717 820 717 815 c 0,330,331
643 901 m 0,352,353
 639 901 639 901 639 897 c 2,354,-1
 639 860 l 2,355,356
 639 858 639 858 641 858 c 0,357,358
 652 858 652 858 652.5 863.5 c 128,-1,359
 653 869 653 869 653 877 c 0,360,361
 653 880 653 880 652 890.5 c 128,-1,362
 651 901 651 901 643 901 c 0,352,353
684 881 m 0,363,364
 695 881 695 881 704.5 874.5 c 128,-1,365
 714 868 714 868 723 868 c 0,366,367
 729 868 729 868 730 870 c 128,-1,368
 731 872 731 872 731 879 c 0,369,370
 731 885 731 885 728 888 c 128,-1,371
 725 891 725 891 721 893.5 c 128,-1,372
 717 896 717 896 713.5 898 c 128,-1,373
 710 900 710 900 709 905 c 0,374,375
 709 908 709 908 710 911.5 c 128,-1,376
 711 915 711 915 713 915 c 2,377,-1
 735 915 l 1,378,379
 737 913 737 913 739 913 c 128,-1,380
 741 913 741 913 743 913 c 0,381,382
 750 913 750 913 754 917.5 c 128,-1,383
 758 922 758 922 758 928 c 0,384,385
 758 936 758 936 755 938 c 128,-1,386
 752 940 752 940 745 940 c 0,387,388
 740 940 740 940 737 939 c 128,-1,389
 734 938 734 938 729 938 c 256,390,391
 724 938 724 938 722 939 c 128,-1,392
 720 940 720 940 715 940 c 1,393,-1
 696 920 l 1,394,395
 697 919 697 919 696.5 919 c 128,-1,396
 696 919 696 919 695.5 918 c 128,-1,397
 695 917 695 917 697 914 c 128,-1,398
 699 911 699 911 705 905 c 1,399,400
 705 902 705 902 696 894.5 c 128,-1,401
 687 887 687 887 684 887 c 0,402,403
 682 887 682 887 679 888 c 0,404,405
 677 888 677 888 675 888.5 c 128,-1,406
 673 889 673 889 672 889 c 0,407,408
 666 889 666 889 665 887.5 c 128,-1,409
 664 886 664 886 664 881 c 0,410,411
 664 878 664 878 667.5 877.5 c 128,-1,412
 671 877 671 877 674 877 c 256,413,414
 677 877 677 877 679 879 c 128,-1,415
 681 881 681 881 684 881 c 0,363,364
1319 1096 m 0,416,417
 1319 1085 1319 1085 1333 1085 c 0,418,419
 1341 1085 1341 1085 1341 1094 c 0,420,421
 1341 1104 1341 1104 1329 1104 c 0,422,423
 1323 1104 1323 1104 1321 1103 c 128,-1,424
 1319 1102 1319 1102 1319 1096 c 0,416,417
401 1087 m 1,425,-1
 403 1087 l 1,426,427
 403 1092 403 1092 401 1094 c 1,428,-1
 401 1087 l 1,425,-1
850 1114 m 0,429,430
 850 1112 850 1112 856 1109 c 128,-1,431
 862 1106 862 1106 864 1106 c 256,432,433
 866 1106 866 1106 871.5 1108.5 c 128,-1,434
 877 1111 877 1111 879 1114 c 1,435,436
 874 1120 874 1120 872 1123 c 128,-1,437
 870 1126 870 1126 862 1126 c 0,438,439
 857 1126 857 1126 853.5 1123 c 128,-1,440
 850 1120 850 1120 850 1114 c 0,429,430
715 1128 m 0,441,442
 709 1128 709 1128 709 1122.5 c 128,-1,443
 709 1117 709 1117 709 1114 c 1,444,-1
 723 1114 l 1,445,446
 723 1119 723 1119 721.5 1123.5 c 128,-1,447
 720 1128 720 1128 715 1128 c 0,441,442
1124 1133 m 1,448,449
 1129 1133 1129 1133 1134 1129 c 128,-1,450
 1139 1125 1139 1125 1141 1122 c 1,451,452
 1150 1122 1150 1122 1162 1126 c 128,-1,453
 1174 1130 1174 1130 1188 1130 c 1,454,455
 1188 1141 1188 1141 1181.5 1144 c 128,-1,456
 1175 1147 1175 1147 1165 1147 c 0,457,458
 1164 1147 1164 1147 1157.5 1147.5 c 128,-1,459
 1151 1148 1151 1148 1143.5 1147 c 128,-1,460
 1136 1146 1136 1146 1130 1143 c 128,-1,461
 1124 1140 1124 1140 1124 1133 c 1,448,449
647 1155 m 0,462,463
 647 1150 647 1150 648 1144.5 c 128,-1,464
 649 1139 649 1139 655 1139 c 0,465,466
 660 1139 660 1139 662 1141 c 128,-1,467
 664 1143 664 1143 672 1143 c 1,468,469
 672 1151 672 1151 669.5 1160 c 128,-1,470
 667 1169 667 1169 657 1169 c 256,471,472
 647 1169 647 1169 647 1155 c 0,462,463
844 1157 m 1,473,474
 842 1157 842 1157 842 1155 c 1,475,-1
 844 1155 l 1,476,-1
 844 1157 l 1,473,474
879 1171 m 0,477,478
 879 1168 879 1168 879 1165 c 128,-1,479
 879 1162 879 1162 881 1157 c 1,480,481
 889 1155 889 1155 890 1162 c 128,-1,482
 891 1169 891 1169 891 1174 c 256,483,484
 891 1179 891 1179 891 1181.5 c 128,-1,485
 891 1184 891 1184 885 1184 c 256,486,487
 879 1184 879 1184 879 1179.5 c 128,-1,488
 879 1175 879 1175 879 1171 c 0,477,478
782 1171 m 1,489,490
 782 1163 782 1163 788 1163 c 0,491,492
 793 1163 793 1163 793 1171 c 1,493,-1
 782 1171 l 1,489,490
1176 1178 m 0,494,495
 1176 1175 1176 1175 1176.5 1172 c 128,-1,496
 1177 1169 1177 1169 1180 1167 c 1,497,498
 1188 1172 1188 1172 1199 1173.5 c 128,-1,499
 1210 1175 1210 1175 1210 1178 c 0,500,501
 1210 1189 1210 1189 1205.5 1197.5 c 128,-1,502
 1201 1206 1201 1206 1198 1206 c 0,503,504
 1190 1206 1190 1206 1183 1195 c 128,-1,505
 1176 1184 1176 1184 1176 1178 c 0,494,495
664 1184 m 1,506,-1
 670 1184 l 1,507,508
 670 1186 670 1186 668 1189 c 128,-1,509
 666 1192 666 1192 664 1190 c 1,510,-1
 664 1184 l 1,506,-1
1030 1268 m 1,511,512
 1029 1266 1029 1266 1030 1265 c 1,513,514
 1030 1262 1030 1262 1034 1262 c 2,515,-1
 1047 1264 l 1,516,517
 1043 1267 1043 1267 1039 1267.5 c 128,-1,518
 1035 1268 1035 1268 1030 1268 c 1,511,512
717 1288 m 256,519,520
 717 1280 717 1280 725 1280 c 0,521,522
 735 1280 735 1280 735 1292 c 0,523,524
 735 1296 735 1296 727 1296 c 0,525,526
 717 1296 717 1296 717 1288 c 256,519,520
754 1300 m 0,527,528
 754 1286 754 1286 766 1286 c 0,529,530
 775 1286 775 1286 783.5 1287 c 128,-1,531
 792 1288 792 1288 797 1296 c 1,532,533
 795 1298 795 1298 795 1303 c 2,534,-1
 795 1307 l 1,535,-1
 793 1308 l 2,536,537
 791 1309 791 1309 789 1310 c 128,-1,538
 787 1311 787 1311 784 1313 c 1,539,540
 778 1313 778 1313 766 1308.5 c 128,-1,541
 754 1304 754 1304 754 1300 c 0,527,528
1102 1382 m 1,542,543
 1102 1377 1102 1377 1105.5 1373.5 c 128,-1,544
 1109 1370 1109 1370 1114 1370 c 1,545,-1
 1114 1382 l 1,546,-1
 1102 1382 l 1,542,543
1165 1386 m 0,547,548
 1165 1383 1165 1383 1165 1377.5 c 128,-1,549
 1165 1372 1165 1372 1167 1372 c 2,550,-1
 1184 1372 l 1,551,-1
 1186 1376 l 1,552,553
 1186 1381 1186 1381 1183.5 1389 c 128,-1,554
 1181 1397 1181 1397 1176 1397 c 256,555,556
 1171 1397 1171 1397 1168 1393.5 c 128,-1,557
 1165 1390 1165 1390 1165 1386 c 0,547,548
719 1401 m 2,558,559
 708 1401 708 1401 702 1394.5 c 128,-1,560
 696 1388 696 1388 696 1380 c 1,561,562
 698 1380 698 1380 704 1382 c 128,-1,563
 710 1384 710 1384 716 1387 c 128,-1,564
 722 1390 722 1390 726.5 1392.5 c 128,-1,565
 731 1395 731 1395 731 1397 c 0,566,567
 731 1400 731 1400 729 1400.5 c 128,-1,568
 727 1401 727 1401 725 1401 c 2,569,-1
 719 1401 l 2,558,559
635 1393 m 1,570,-1
 645 1393 l 1,571,572
 645 1398 645 1398 643.5 1401.5 c 128,-1,573
 642 1405 642 1405 637 1405 c 2,574,-1
 636 1405 l 2,575,576
 635 1405 635 1405 635 1403 c 2,577,-1
 635 1393 l 1,570,-1
496 1405 m 1,578,579
 485 1405 485 1405 485 1397 c 1,580,-1
 504 1397 l 1,581,-1
 505 1398 l 2,582,583
 505 1399 505 1399 505.5 1399.5 c 128,-1,584
 506 1400 506 1400 506 1401 c 0,585,586
 506 1403 506 1403 504.5 1403 c 128,-1,587
 503 1403 503 1403 501 1404 c 1,588,589
 498 1404 498 1404 496 1405 c 1,578,579
438 1407 m 0,590,591
 438 1401 438 1401 440.5 1400 c 128,-1,592
 443 1399 443 1399 446 1399 c 0,593,594
 454 1399 454 1399 460.5 1399 c 128,-1,595
 467 1399 467 1399 473 1401 c 1,596,597
 478 1401 478 1401 469.5 1407 c 128,-1,598
 461 1413 461 1413 449 1425 c 1,599,600
 442 1425 442 1425 440 1417.5 c 128,-1,601
 438 1410 438 1410 438 1407 c 0,590,591
768 1419 m 1,602,603
 768 1417 768 1417 769.5 1409 c 128,-1,604
 771 1401 771 1401 776 1401 c 0,605,606
 778 1401 778 1401 782 1403.5 c 128,-1,607
 786 1406 786 1406 786 1409 c 0,608,609
 786 1417 786 1417 779.5 1418 c 128,-1,610
 773 1419 773 1419 768 1419 c 1,602,603
743 1468 m 1,611,612
 748 1466 748 1466 751.5 1465 c 128,-1,613
 755 1464 755 1464 760 1464 c 1,614,615
 760 1467 760 1467 758.5 1472 c 128,-1,616
 757 1477 757 1477 754 1477 c 1,617,618
 754 1479 754 1479 750.5 1475.5 c 128,-1,619
 747 1472 747 1472 743 1468 c 1,611,612
EndSplineSet
EndChar
